G04 MADE WITH FRITZING*
G04 WWW.FRITZING.ORG*
G04 DOUBLE SIDED*
G04 HOLES PLATED*
G04 CONTOUR ON CENTER OF CONTOUR VECTOR*
%ASAXBY*%
%FSLAX23Y23*%
%MOIN*%
%OFA0B0*%
%SFA1.0B1.0*%
%ADD10C,0.076555*%
%ADD11C,0.059194*%
%ADD12C,0.088000*%
%ADD13C,0.084000*%
%ADD14C,0.120236*%
%ADD15C,0.085000*%
%ADD16C,0.084972*%
%ADD17C,0.049370*%
%ADD18R,0.088000X0.088000*%
%ADD19R,0.085014X0.085000*%
%ADD20R,0.085000X0.085014*%
%ADD21R,0.001000X0.001000*%
%LNMASK0*%
G90*
G70*
G54D10*
X493Y2548D03*
X493Y2448D03*
X493Y2348D03*
X493Y2248D03*
X493Y2148D03*
X493Y2648D03*
X1506Y2445D03*
X1506Y2345D03*
G54D11*
X1506Y2545D03*
G54D10*
X1506Y2245D03*
G54D12*
X793Y648D03*
X893Y648D03*
G54D13*
X2293Y1448D03*
X2393Y1448D03*
X2493Y1448D03*
X2593Y1448D03*
X2693Y1448D03*
X2793Y1448D03*
X2893Y1448D03*
X2993Y1448D03*
X3093Y1448D03*
X3193Y1448D03*
X3293Y1448D03*
X3393Y1448D03*
X3493Y1448D03*
X3593Y1448D03*
X3693Y1448D03*
X3793Y1448D03*
G54D14*
X2077Y1448D03*
X2077Y227D03*
X5029Y1448D03*
X5029Y227D03*
G54D15*
X193Y1448D03*
X193Y1348D03*
X193Y1448D03*
X193Y1348D03*
G54D16*
X1293Y1655D03*
G54D15*
X1193Y1655D03*
X1093Y1655D03*
X593Y1655D03*
G54D16*
X993Y1655D03*
G54D15*
X493Y1655D03*
X893Y1655D03*
X393Y1655D03*
X793Y1655D03*
X293Y1655D03*
X693Y1655D03*
X193Y1655D03*
X1693Y1655D03*
X1593Y1655D03*
G54D16*
X1493Y1655D03*
G54D15*
X1393Y1655D03*
X1693Y1655D03*
X1593Y1655D03*
G54D16*
X1493Y1655D03*
G54D15*
X1393Y1655D03*
G54D16*
X1293Y1655D03*
G54D15*
X1193Y1655D03*
X1093Y1655D03*
X593Y1655D03*
G54D16*
X993Y1655D03*
G54D15*
X493Y1655D03*
X893Y1655D03*
X393Y1655D03*
X793Y1655D03*
X293Y1655D03*
X693Y1655D03*
X193Y1655D03*
X1693Y1455D03*
X1693Y1355D03*
X1693Y1255D03*
X1693Y1155D03*
X1693Y1455D03*
X1693Y1355D03*
X1693Y1255D03*
X1693Y1155D03*
G54D17*
X1764Y1181D03*
X1884Y1205D03*
X2580Y1781D03*
X2172Y1277D03*
X1764Y1445D03*
X2556Y2141D03*
G54D18*
X793Y648D03*
G54D19*
X1693Y1655D03*
X1693Y1655D03*
G54D20*
X1693Y1455D03*
X1693Y1455D03*
G54D21*
X2785Y2991D02*
X2800Y2991D01*
X2885Y2991D02*
X2900Y2991D01*
X2985Y2991D02*
X3000Y2991D01*
X3085Y2991D02*
X3100Y2991D01*
X3185Y2991D02*
X3200Y2991D01*
X3285Y2991D02*
X3300Y2991D01*
X3385Y2991D02*
X3400Y2991D01*
X3485Y2991D02*
X3500Y2991D01*
X3585Y2991D02*
X3600Y2991D01*
X3685Y2991D02*
X3700Y2991D01*
X3785Y2991D02*
X3800Y2991D01*
X3885Y2991D02*
X3900Y2991D01*
X3985Y2991D02*
X4000Y2991D01*
X4085Y2991D02*
X4100Y2991D01*
X4185Y2991D02*
X4200Y2991D01*
X2781Y2990D02*
X2804Y2990D01*
X2881Y2990D02*
X2904Y2990D01*
X2981Y2990D02*
X3004Y2990D01*
X3081Y2990D02*
X3104Y2990D01*
X3181Y2990D02*
X3204Y2990D01*
X3281Y2990D02*
X3304Y2990D01*
X3381Y2990D02*
X3404Y2990D01*
X3481Y2990D02*
X3504Y2990D01*
X3581Y2990D02*
X3604Y2990D01*
X3681Y2990D02*
X3704Y2990D01*
X3781Y2990D02*
X3804Y2990D01*
X3881Y2990D02*
X3905Y2990D01*
X3981Y2990D02*
X4004Y2990D01*
X4081Y2990D02*
X4104Y2990D01*
X4181Y2990D02*
X4204Y2990D01*
X2778Y2989D02*
X2807Y2989D01*
X2878Y2989D02*
X2907Y2989D01*
X2978Y2989D02*
X3007Y2989D01*
X3078Y2989D02*
X3107Y2989D01*
X3178Y2989D02*
X3207Y2989D01*
X3278Y2989D02*
X3307Y2989D01*
X3378Y2989D02*
X3407Y2989D01*
X3478Y2989D02*
X3507Y2989D01*
X3577Y2989D02*
X3607Y2989D01*
X3677Y2989D02*
X3707Y2989D01*
X3777Y2989D02*
X3807Y2989D01*
X3878Y2989D02*
X3908Y2989D01*
X3978Y2989D02*
X4007Y2989D01*
X4078Y2989D02*
X4107Y2989D01*
X4177Y2989D02*
X4207Y2989D01*
X2775Y2988D02*
X2810Y2988D01*
X2875Y2988D02*
X2910Y2988D01*
X2975Y2988D02*
X3010Y2988D01*
X3075Y2988D02*
X3110Y2988D01*
X3175Y2988D02*
X3210Y2988D01*
X3275Y2988D02*
X3310Y2988D01*
X3375Y2988D02*
X3410Y2988D01*
X3475Y2988D02*
X3510Y2988D01*
X3575Y2988D02*
X3610Y2988D01*
X3675Y2988D02*
X3710Y2988D01*
X3775Y2988D02*
X3810Y2988D01*
X3875Y2988D02*
X3910Y2988D01*
X3975Y2988D02*
X4010Y2988D01*
X4075Y2988D02*
X4110Y2988D01*
X4175Y2988D02*
X4210Y2988D01*
X2773Y2987D02*
X2812Y2987D01*
X2873Y2987D02*
X2912Y2987D01*
X2973Y2987D02*
X3012Y2987D01*
X3073Y2987D02*
X3112Y2987D01*
X3173Y2987D02*
X3212Y2987D01*
X3273Y2987D02*
X3312Y2987D01*
X3373Y2987D02*
X3412Y2987D01*
X3473Y2987D02*
X3512Y2987D01*
X3573Y2987D02*
X3612Y2987D01*
X3673Y2987D02*
X3712Y2987D01*
X3773Y2987D02*
X3812Y2987D01*
X3873Y2987D02*
X3912Y2987D01*
X3973Y2987D02*
X4012Y2987D01*
X4073Y2987D02*
X4112Y2987D01*
X4173Y2987D02*
X4212Y2987D01*
X2771Y2986D02*
X2814Y2986D01*
X2871Y2986D02*
X2914Y2986D01*
X2971Y2986D02*
X3014Y2986D01*
X3071Y2986D02*
X3114Y2986D01*
X3171Y2986D02*
X3214Y2986D01*
X3271Y2986D02*
X3314Y2986D01*
X3371Y2986D02*
X3414Y2986D01*
X3471Y2986D02*
X3514Y2986D01*
X3571Y2986D02*
X3614Y2986D01*
X3671Y2986D02*
X3714Y2986D01*
X3771Y2986D02*
X3814Y2986D01*
X3872Y2986D02*
X3914Y2986D01*
X3971Y2986D02*
X4014Y2986D01*
X4071Y2986D02*
X4114Y2986D01*
X4171Y2986D02*
X4214Y2986D01*
X2770Y2985D02*
X2815Y2985D01*
X2870Y2985D02*
X2915Y2985D01*
X2970Y2985D02*
X3015Y2985D01*
X3070Y2985D02*
X3115Y2985D01*
X3170Y2985D02*
X3215Y2985D01*
X3270Y2985D02*
X3315Y2985D01*
X3370Y2985D02*
X3415Y2985D01*
X3470Y2985D02*
X3515Y2985D01*
X3570Y2985D02*
X3615Y2985D01*
X3670Y2985D02*
X3715Y2985D01*
X3769Y2985D02*
X3815Y2985D01*
X3870Y2985D02*
X3916Y2985D01*
X3970Y2985D02*
X4015Y2985D01*
X4070Y2985D02*
X4115Y2985D01*
X4169Y2985D02*
X4215Y2985D01*
X2768Y2984D02*
X2817Y2984D01*
X2868Y2984D02*
X2917Y2984D01*
X2968Y2984D02*
X3017Y2984D01*
X3068Y2984D02*
X3117Y2984D01*
X3168Y2984D02*
X3217Y2984D01*
X3268Y2984D02*
X3317Y2984D01*
X3368Y2984D02*
X3417Y2984D01*
X3468Y2984D02*
X3517Y2984D01*
X3568Y2984D02*
X3617Y2984D01*
X3668Y2984D02*
X3717Y2984D01*
X3768Y2984D02*
X3817Y2984D01*
X3868Y2984D02*
X3917Y2984D01*
X3968Y2984D02*
X4017Y2984D01*
X4068Y2984D02*
X4117Y2984D01*
X4168Y2984D02*
X4217Y2984D01*
X2767Y2983D02*
X2818Y2983D01*
X2867Y2983D02*
X2918Y2983D01*
X2967Y2983D02*
X3018Y2983D01*
X3067Y2983D02*
X3118Y2983D01*
X3167Y2983D02*
X3218Y2983D01*
X3267Y2983D02*
X3318Y2983D01*
X3367Y2983D02*
X3418Y2983D01*
X3467Y2983D02*
X3518Y2983D01*
X3567Y2983D02*
X3618Y2983D01*
X3667Y2983D02*
X3718Y2983D01*
X3767Y2983D02*
X3818Y2983D01*
X3867Y2983D02*
X3919Y2983D01*
X3967Y2983D02*
X4018Y2983D01*
X4067Y2983D02*
X4118Y2983D01*
X4167Y2983D02*
X4218Y2983D01*
X2765Y2982D02*
X2820Y2982D01*
X2865Y2982D02*
X2920Y2982D01*
X2965Y2982D02*
X3020Y2982D01*
X3065Y2982D02*
X3120Y2982D01*
X3165Y2982D02*
X3220Y2982D01*
X3265Y2982D02*
X3319Y2982D01*
X3365Y2982D02*
X3419Y2982D01*
X3465Y2982D02*
X3519Y2982D01*
X3565Y2982D02*
X3619Y2982D01*
X3665Y2982D02*
X3719Y2982D01*
X3765Y2982D02*
X3819Y2982D01*
X3866Y2982D02*
X3920Y2982D01*
X3966Y2982D02*
X4020Y2982D01*
X4065Y2982D02*
X4120Y2982D01*
X4165Y2982D02*
X4219Y2982D01*
X2764Y2981D02*
X2821Y2981D01*
X2864Y2981D02*
X2921Y2981D01*
X2964Y2981D02*
X3021Y2981D01*
X3064Y2981D02*
X3121Y2981D01*
X3164Y2981D02*
X3221Y2981D01*
X3264Y2981D02*
X3321Y2981D01*
X3364Y2981D02*
X3421Y2981D01*
X3464Y2981D02*
X3521Y2981D01*
X3564Y2981D02*
X3621Y2981D01*
X3664Y2981D02*
X3721Y2981D01*
X3764Y2981D02*
X3821Y2981D01*
X3864Y2981D02*
X3921Y2981D01*
X3964Y2981D02*
X4021Y2981D01*
X4064Y2981D02*
X4121Y2981D01*
X4164Y2981D02*
X4221Y2981D01*
X2763Y2980D02*
X2822Y2980D01*
X2863Y2980D02*
X2922Y2980D01*
X2963Y2980D02*
X3022Y2980D01*
X3063Y2980D02*
X3122Y2980D01*
X3163Y2980D02*
X3222Y2980D01*
X3263Y2980D02*
X3322Y2980D01*
X3363Y2980D02*
X3422Y2980D01*
X3463Y2980D02*
X3522Y2980D01*
X3563Y2980D02*
X3622Y2980D01*
X3663Y2980D02*
X3722Y2980D01*
X3763Y2980D02*
X3822Y2980D01*
X3863Y2980D02*
X3922Y2980D01*
X3963Y2980D02*
X4022Y2980D01*
X4063Y2980D02*
X4122Y2980D01*
X4163Y2980D02*
X4222Y2980D01*
X2762Y2979D02*
X2823Y2979D01*
X2862Y2979D02*
X2923Y2979D01*
X2962Y2979D02*
X3023Y2979D01*
X3062Y2979D02*
X3123Y2979D01*
X3162Y2979D02*
X3223Y2979D01*
X3262Y2979D02*
X3323Y2979D01*
X3362Y2979D02*
X3423Y2979D01*
X3462Y2979D02*
X3523Y2979D01*
X3562Y2979D02*
X3623Y2979D01*
X3662Y2979D02*
X3723Y2979D01*
X3762Y2979D02*
X3823Y2979D01*
X3862Y2979D02*
X3923Y2979D01*
X3962Y2979D02*
X4023Y2979D01*
X4062Y2979D02*
X4123Y2979D01*
X4162Y2979D02*
X4223Y2979D01*
X2761Y2978D02*
X2824Y2978D01*
X2861Y2978D02*
X2924Y2978D01*
X2961Y2978D02*
X3024Y2978D01*
X3061Y2978D02*
X3124Y2978D01*
X3161Y2978D02*
X3224Y2978D01*
X3261Y2978D02*
X3324Y2978D01*
X3361Y2978D02*
X3424Y2978D01*
X3461Y2978D02*
X3524Y2978D01*
X3561Y2978D02*
X3624Y2978D01*
X3661Y2978D02*
X3724Y2978D01*
X3761Y2978D02*
X3824Y2978D01*
X3861Y2978D02*
X3924Y2978D01*
X3961Y2978D02*
X4024Y2978D01*
X4061Y2978D02*
X4124Y2978D01*
X4161Y2978D02*
X4224Y2978D01*
X2760Y2977D02*
X2825Y2977D01*
X2860Y2977D02*
X2925Y2977D01*
X2960Y2977D02*
X3025Y2977D01*
X3060Y2977D02*
X3125Y2977D01*
X3160Y2977D02*
X3225Y2977D01*
X3260Y2977D02*
X3325Y2977D01*
X3360Y2977D02*
X3425Y2977D01*
X3460Y2977D02*
X3525Y2977D01*
X3560Y2977D02*
X3625Y2977D01*
X3660Y2977D02*
X3725Y2977D01*
X3760Y2977D02*
X3825Y2977D01*
X3860Y2977D02*
X3925Y2977D01*
X3960Y2977D02*
X4025Y2977D01*
X4060Y2977D02*
X4125Y2977D01*
X4160Y2977D02*
X4225Y2977D01*
X2759Y2976D02*
X2826Y2976D01*
X2859Y2976D02*
X2926Y2976D01*
X2959Y2976D02*
X3026Y2976D01*
X3059Y2976D02*
X3126Y2976D01*
X3159Y2976D02*
X3226Y2976D01*
X3259Y2976D02*
X3326Y2976D01*
X3359Y2976D02*
X3426Y2976D01*
X3459Y2976D02*
X3526Y2976D01*
X3559Y2976D02*
X3626Y2976D01*
X3659Y2976D02*
X3726Y2976D01*
X3759Y2976D02*
X3826Y2976D01*
X3860Y2976D02*
X3926Y2976D01*
X3959Y2976D02*
X4026Y2976D01*
X4059Y2976D02*
X4126Y2976D01*
X4159Y2976D02*
X4226Y2976D01*
X2758Y2975D02*
X2826Y2975D01*
X2858Y2975D02*
X2926Y2975D01*
X2958Y2975D02*
X3026Y2975D01*
X3058Y2975D02*
X3126Y2975D01*
X3158Y2975D02*
X3226Y2975D01*
X3258Y2975D02*
X3326Y2975D01*
X3358Y2975D02*
X3426Y2975D01*
X3458Y2975D02*
X3526Y2975D01*
X3558Y2975D02*
X3626Y2975D01*
X3658Y2975D02*
X3726Y2975D01*
X3758Y2975D02*
X3826Y2975D01*
X3859Y2975D02*
X3927Y2975D01*
X3959Y2975D02*
X4027Y2975D01*
X4058Y2975D02*
X4126Y2975D01*
X4158Y2975D02*
X4226Y2975D01*
X2758Y2974D02*
X2827Y2974D01*
X2858Y2974D02*
X2927Y2974D01*
X2958Y2974D02*
X3027Y2974D01*
X3058Y2974D02*
X3127Y2974D01*
X3158Y2974D02*
X3227Y2974D01*
X3258Y2974D02*
X3327Y2974D01*
X3358Y2974D02*
X3427Y2974D01*
X3458Y2974D02*
X3527Y2974D01*
X3558Y2974D02*
X3627Y2974D01*
X3658Y2974D02*
X3727Y2974D01*
X3758Y2974D02*
X3827Y2974D01*
X3858Y2974D02*
X3927Y2974D01*
X3958Y2974D02*
X4027Y2974D01*
X4058Y2974D02*
X4127Y2974D01*
X4158Y2974D02*
X4227Y2974D01*
X2757Y2973D02*
X2828Y2973D01*
X2857Y2973D02*
X2928Y2973D01*
X2957Y2973D02*
X3028Y2973D01*
X3057Y2973D02*
X3128Y2973D01*
X3157Y2973D02*
X3228Y2973D01*
X3257Y2973D02*
X3328Y2973D01*
X3357Y2973D02*
X3428Y2973D01*
X3457Y2973D02*
X3528Y2973D01*
X3557Y2973D02*
X3628Y2973D01*
X3657Y2973D02*
X3728Y2973D01*
X3757Y2973D02*
X3828Y2973D01*
X3857Y2973D02*
X3928Y2973D01*
X3957Y2973D02*
X4028Y2973D01*
X4057Y2973D02*
X4128Y2973D01*
X4157Y2973D02*
X4228Y2973D01*
X2756Y2972D02*
X2829Y2972D01*
X2856Y2972D02*
X2929Y2972D01*
X2956Y2972D02*
X3029Y2972D01*
X3056Y2972D02*
X3129Y2972D01*
X3156Y2972D02*
X3229Y2972D01*
X3256Y2972D02*
X3329Y2972D01*
X3356Y2972D02*
X3429Y2972D01*
X3456Y2972D02*
X3528Y2972D01*
X3556Y2972D02*
X3628Y2972D01*
X3656Y2972D02*
X3728Y2972D01*
X3756Y2972D02*
X3828Y2972D01*
X3857Y2972D02*
X3929Y2972D01*
X3956Y2972D02*
X4029Y2972D01*
X4056Y2972D02*
X4129Y2972D01*
X4156Y2972D02*
X4228Y2972D01*
X2756Y2971D02*
X2829Y2971D01*
X2856Y2971D02*
X2929Y2971D01*
X2956Y2971D02*
X3029Y2971D01*
X3056Y2971D02*
X3129Y2971D01*
X3156Y2971D02*
X3229Y2971D01*
X3256Y2971D02*
X3329Y2971D01*
X3356Y2971D02*
X3429Y2971D01*
X3456Y2971D02*
X3529Y2971D01*
X3556Y2971D02*
X3629Y2971D01*
X3656Y2971D02*
X3729Y2971D01*
X3756Y2971D02*
X3829Y2971D01*
X3856Y2971D02*
X3930Y2971D01*
X3956Y2971D02*
X4029Y2971D01*
X4056Y2971D02*
X4129Y2971D01*
X4156Y2971D02*
X4229Y2971D01*
X2755Y2970D02*
X2830Y2970D01*
X2855Y2970D02*
X2930Y2970D01*
X2955Y2970D02*
X3030Y2970D01*
X3055Y2970D02*
X3130Y2970D01*
X3155Y2970D02*
X3230Y2970D01*
X3255Y2970D02*
X3330Y2970D01*
X3355Y2970D02*
X3430Y2970D01*
X3455Y2970D02*
X3530Y2970D01*
X3555Y2970D02*
X3630Y2970D01*
X3655Y2970D02*
X3730Y2970D01*
X3755Y2970D02*
X3830Y2970D01*
X3855Y2970D02*
X3930Y2970D01*
X3955Y2970D02*
X4030Y2970D01*
X4055Y2970D02*
X4130Y2970D01*
X4155Y2970D02*
X4230Y2970D01*
X2754Y2969D02*
X2830Y2969D01*
X2854Y2969D02*
X2930Y2969D01*
X2954Y2969D02*
X3030Y2969D01*
X3054Y2969D02*
X3130Y2969D01*
X3154Y2969D02*
X3230Y2969D01*
X3254Y2969D02*
X3330Y2969D01*
X3354Y2969D02*
X3430Y2969D01*
X3454Y2969D02*
X3530Y2969D01*
X3554Y2969D02*
X3630Y2969D01*
X3654Y2969D02*
X3730Y2969D01*
X3754Y2969D02*
X3830Y2969D01*
X3855Y2969D02*
X3931Y2969D01*
X3955Y2969D02*
X4031Y2969D01*
X4054Y2969D02*
X4130Y2969D01*
X4154Y2969D02*
X4230Y2969D01*
X2754Y2968D02*
X2831Y2968D01*
X2854Y2968D02*
X2931Y2968D01*
X2954Y2968D02*
X3031Y2968D01*
X3054Y2968D02*
X3131Y2968D01*
X3154Y2968D02*
X3231Y2968D01*
X3254Y2968D02*
X3331Y2968D01*
X3354Y2968D02*
X3431Y2968D01*
X3454Y2968D02*
X3531Y2968D01*
X3554Y2968D02*
X3631Y2968D01*
X3654Y2968D02*
X3731Y2968D01*
X3754Y2968D02*
X3831Y2968D01*
X3854Y2968D02*
X3931Y2968D01*
X3954Y2968D02*
X4031Y2968D01*
X4054Y2968D02*
X4131Y2968D01*
X4154Y2968D02*
X4231Y2968D01*
X2753Y2967D02*
X2831Y2967D01*
X2853Y2967D02*
X2931Y2967D01*
X2953Y2967D02*
X3031Y2967D01*
X3053Y2967D02*
X3131Y2967D01*
X3153Y2967D02*
X3231Y2967D01*
X3253Y2967D02*
X3331Y2967D01*
X3353Y2967D02*
X3431Y2967D01*
X3453Y2967D02*
X3531Y2967D01*
X3553Y2967D02*
X3631Y2967D01*
X3653Y2967D02*
X3731Y2967D01*
X3753Y2967D02*
X3831Y2967D01*
X3854Y2967D02*
X3932Y2967D01*
X3954Y2967D02*
X4032Y2967D01*
X4053Y2967D02*
X4131Y2967D01*
X4153Y2967D02*
X4231Y2967D01*
X2753Y2966D02*
X2832Y2966D01*
X2853Y2966D02*
X2932Y2966D01*
X2953Y2966D02*
X3032Y2966D01*
X3053Y2966D02*
X3132Y2966D01*
X3153Y2966D02*
X3232Y2966D01*
X3253Y2966D02*
X3332Y2966D01*
X3353Y2966D02*
X3432Y2966D01*
X3453Y2966D02*
X3532Y2966D01*
X3553Y2966D02*
X3632Y2966D01*
X3653Y2966D02*
X3732Y2966D01*
X3753Y2966D02*
X3832Y2966D01*
X3853Y2966D02*
X3932Y2966D01*
X3953Y2966D02*
X4032Y2966D01*
X4053Y2966D02*
X4132Y2966D01*
X4153Y2966D02*
X4232Y2966D01*
X2752Y2965D02*
X2832Y2965D01*
X2852Y2965D02*
X2932Y2965D01*
X2952Y2965D02*
X3032Y2965D01*
X3052Y2965D02*
X3132Y2965D01*
X3152Y2965D02*
X3232Y2965D01*
X3252Y2965D02*
X3332Y2965D01*
X3352Y2965D02*
X3432Y2965D01*
X3452Y2965D02*
X3532Y2965D01*
X3552Y2965D02*
X3632Y2965D01*
X3652Y2965D02*
X3732Y2965D01*
X3752Y2965D02*
X3832Y2965D01*
X3853Y2965D02*
X3933Y2965D01*
X3953Y2965D02*
X4033Y2965D01*
X4052Y2965D02*
X4132Y2965D01*
X4152Y2965D02*
X4232Y2965D01*
X2752Y2964D02*
X2833Y2964D01*
X2852Y2964D02*
X2933Y2964D01*
X2952Y2964D02*
X3033Y2964D01*
X3052Y2964D02*
X3133Y2964D01*
X3152Y2964D02*
X3233Y2964D01*
X3252Y2964D02*
X3333Y2964D01*
X3352Y2964D02*
X3433Y2964D01*
X3452Y2964D02*
X3533Y2964D01*
X3552Y2964D02*
X3633Y2964D01*
X3652Y2964D02*
X3733Y2964D01*
X3752Y2964D02*
X3833Y2964D01*
X3852Y2964D02*
X3933Y2964D01*
X3952Y2964D02*
X4033Y2964D01*
X4052Y2964D02*
X4133Y2964D01*
X4152Y2964D02*
X4233Y2964D01*
X2752Y2963D02*
X2833Y2963D01*
X2852Y2963D02*
X2933Y2963D01*
X2952Y2963D02*
X3033Y2963D01*
X3052Y2963D02*
X3133Y2963D01*
X3152Y2963D02*
X3233Y2963D01*
X3252Y2963D02*
X3333Y2963D01*
X3352Y2963D02*
X3433Y2963D01*
X3452Y2963D02*
X3533Y2963D01*
X3552Y2963D02*
X3633Y2963D01*
X3652Y2963D02*
X3733Y2963D01*
X3752Y2963D02*
X3833Y2963D01*
X3852Y2963D02*
X3933Y2963D01*
X3952Y2963D02*
X4033Y2963D01*
X4052Y2963D02*
X4133Y2963D01*
X4152Y2963D02*
X4233Y2963D01*
X2751Y2962D02*
X2833Y2962D01*
X2851Y2962D02*
X2933Y2962D01*
X2951Y2962D02*
X3033Y2962D01*
X3051Y2962D02*
X3133Y2962D01*
X3151Y2962D02*
X3233Y2962D01*
X3251Y2962D02*
X3333Y2962D01*
X3351Y2962D02*
X3433Y2962D01*
X3451Y2962D02*
X3533Y2962D01*
X3551Y2962D02*
X3633Y2962D01*
X3651Y2962D02*
X3733Y2962D01*
X3751Y2962D02*
X3833Y2962D01*
X3852Y2962D02*
X3934Y2962D01*
X3952Y2962D02*
X4034Y2962D01*
X4051Y2962D02*
X4134Y2962D01*
X4151Y2962D02*
X4233Y2962D01*
X2751Y2961D02*
X2834Y2961D01*
X2851Y2961D02*
X2934Y2961D01*
X2951Y2961D02*
X3034Y2961D01*
X3051Y2961D02*
X3134Y2961D01*
X3151Y2961D02*
X3234Y2961D01*
X3251Y2961D02*
X3334Y2961D01*
X3351Y2961D02*
X3434Y2961D01*
X3451Y2961D02*
X3534Y2961D01*
X3551Y2961D02*
X3634Y2961D01*
X3651Y2961D02*
X3734Y2961D01*
X3751Y2961D02*
X3834Y2961D01*
X3851Y2961D02*
X3934Y2961D01*
X3951Y2961D02*
X4034Y2961D01*
X4051Y2961D02*
X4134Y2961D01*
X4151Y2961D02*
X4234Y2961D01*
X2751Y2960D02*
X2834Y2960D01*
X2851Y2960D02*
X2934Y2960D01*
X2951Y2960D02*
X3034Y2960D01*
X3051Y2960D02*
X3134Y2960D01*
X3151Y2960D02*
X3234Y2960D01*
X3251Y2960D02*
X3334Y2960D01*
X3351Y2960D02*
X3434Y2960D01*
X3451Y2960D02*
X3534Y2960D01*
X3551Y2960D02*
X3634Y2960D01*
X3651Y2960D02*
X3734Y2960D01*
X3751Y2960D02*
X3834Y2960D01*
X3851Y2960D02*
X3934Y2960D01*
X3951Y2960D02*
X4034Y2960D01*
X4051Y2960D02*
X4134Y2960D01*
X4151Y2960D02*
X4234Y2960D01*
X2751Y2959D02*
X2834Y2959D01*
X2851Y2959D02*
X2934Y2959D01*
X2951Y2959D02*
X3034Y2959D01*
X3051Y2959D02*
X3134Y2959D01*
X3150Y2959D02*
X3234Y2959D01*
X3250Y2959D02*
X3334Y2959D01*
X3350Y2959D02*
X3434Y2959D01*
X3450Y2959D02*
X3534Y2959D01*
X3550Y2959D02*
X3634Y2959D01*
X3650Y2959D02*
X3734Y2959D01*
X3750Y2959D02*
X3834Y2959D01*
X3851Y2959D02*
X3935Y2959D01*
X3951Y2959D02*
X4035Y2959D01*
X4051Y2959D02*
X4134Y2959D01*
X4150Y2959D02*
X4234Y2959D01*
X2750Y2958D02*
X2835Y2958D01*
X2850Y2958D02*
X2935Y2958D01*
X2950Y2958D02*
X3035Y2958D01*
X3050Y2958D02*
X3135Y2958D01*
X3150Y2958D02*
X3235Y2958D01*
X3250Y2958D02*
X3335Y2958D01*
X3350Y2958D02*
X3435Y2958D01*
X3450Y2958D02*
X3535Y2958D01*
X3550Y2958D02*
X3635Y2958D01*
X3650Y2958D02*
X3734Y2958D01*
X3750Y2958D02*
X3834Y2958D01*
X3851Y2958D02*
X3935Y2958D01*
X3950Y2958D02*
X4035Y2958D01*
X4050Y2958D02*
X4135Y2958D01*
X4150Y2958D02*
X4234Y2958D01*
X2750Y2957D02*
X2835Y2957D01*
X2850Y2957D02*
X2935Y2957D01*
X2950Y2957D02*
X3035Y2957D01*
X3050Y2957D02*
X3135Y2957D01*
X3150Y2957D02*
X3235Y2957D01*
X3250Y2957D02*
X3335Y2957D01*
X3350Y2957D02*
X3435Y2957D01*
X3450Y2957D02*
X3535Y2957D01*
X3550Y2957D02*
X3635Y2957D01*
X3650Y2957D02*
X3735Y2957D01*
X3750Y2957D02*
X3835Y2957D01*
X3850Y2957D02*
X3935Y2957D01*
X3950Y2957D02*
X4035Y2957D01*
X4050Y2957D02*
X4135Y2957D01*
X4150Y2957D02*
X4235Y2957D01*
X2750Y2956D02*
X2835Y2956D01*
X2850Y2956D02*
X2935Y2956D01*
X2950Y2956D02*
X3035Y2956D01*
X3050Y2956D02*
X3135Y2956D01*
X3150Y2956D02*
X3235Y2956D01*
X3250Y2956D02*
X3335Y2956D01*
X3350Y2956D02*
X3435Y2956D01*
X3450Y2956D02*
X3535Y2956D01*
X3550Y2956D02*
X3635Y2956D01*
X3650Y2956D02*
X3735Y2956D01*
X3750Y2956D02*
X3835Y2956D01*
X3850Y2956D02*
X3935Y2956D01*
X3950Y2956D02*
X4035Y2956D01*
X4050Y2956D02*
X4135Y2956D01*
X4150Y2956D02*
X4235Y2956D01*
X2750Y2955D02*
X2835Y2955D01*
X2850Y2955D02*
X2935Y2955D01*
X2950Y2955D02*
X3035Y2955D01*
X3050Y2955D02*
X3135Y2955D01*
X3150Y2955D02*
X3235Y2955D01*
X3250Y2955D02*
X3335Y2955D01*
X3350Y2955D02*
X3435Y2955D01*
X3450Y2955D02*
X3535Y2955D01*
X3550Y2955D02*
X3635Y2955D01*
X3650Y2955D02*
X3735Y2955D01*
X3750Y2955D02*
X3835Y2955D01*
X3850Y2955D02*
X3936Y2955D01*
X3950Y2955D02*
X4035Y2955D01*
X4050Y2955D02*
X4135Y2955D01*
X4150Y2955D02*
X4235Y2955D01*
X2750Y2954D02*
X2835Y2954D01*
X2850Y2954D02*
X2935Y2954D01*
X2950Y2954D02*
X3035Y2954D01*
X3050Y2954D02*
X3135Y2954D01*
X3149Y2954D02*
X3235Y2954D01*
X3249Y2954D02*
X3335Y2954D01*
X3349Y2954D02*
X3435Y2954D01*
X3449Y2954D02*
X3535Y2954D01*
X3549Y2954D02*
X3635Y2954D01*
X3649Y2954D02*
X3735Y2954D01*
X3749Y2954D02*
X3835Y2954D01*
X3850Y2954D02*
X3936Y2954D01*
X3950Y2954D02*
X4036Y2954D01*
X4050Y2954D02*
X4135Y2954D01*
X4149Y2954D02*
X4235Y2954D01*
X2749Y2953D02*
X2835Y2953D01*
X2849Y2953D02*
X2935Y2953D01*
X2949Y2953D02*
X3035Y2953D01*
X3049Y2953D02*
X3135Y2953D01*
X3149Y2953D02*
X3235Y2953D01*
X3249Y2953D02*
X3335Y2953D01*
X3349Y2953D02*
X3435Y2953D01*
X3449Y2953D02*
X3535Y2953D01*
X3549Y2953D02*
X3635Y2953D01*
X3649Y2953D02*
X3735Y2953D01*
X3749Y2953D02*
X3835Y2953D01*
X3850Y2953D02*
X3936Y2953D01*
X3950Y2953D02*
X4036Y2953D01*
X4049Y2953D02*
X4136Y2953D01*
X4149Y2953D02*
X4235Y2953D01*
X2749Y2952D02*
X2836Y2952D01*
X2849Y2952D02*
X2936Y2952D01*
X2949Y2952D02*
X3036Y2952D01*
X3049Y2952D02*
X3136Y2952D01*
X3149Y2952D02*
X3236Y2952D01*
X3249Y2952D02*
X3336Y2952D01*
X3349Y2952D02*
X3436Y2952D01*
X3449Y2952D02*
X3536Y2952D01*
X3549Y2952D02*
X3636Y2952D01*
X3649Y2952D02*
X3736Y2952D01*
X3749Y2952D02*
X3836Y2952D01*
X3850Y2952D02*
X3936Y2952D01*
X3949Y2952D02*
X4036Y2952D01*
X4049Y2952D02*
X4136Y2952D01*
X4149Y2952D02*
X4235Y2952D01*
X2749Y2951D02*
X2836Y2951D01*
X2849Y2951D02*
X2936Y2951D01*
X2949Y2951D02*
X3036Y2951D01*
X3049Y2951D02*
X3136Y2951D01*
X3149Y2951D02*
X3236Y2951D01*
X3249Y2951D02*
X3336Y2951D01*
X3349Y2951D02*
X3436Y2951D01*
X3449Y2951D02*
X3536Y2951D01*
X3549Y2951D02*
X3636Y2951D01*
X3649Y2951D02*
X3736Y2951D01*
X3749Y2951D02*
X3836Y2951D01*
X3850Y2951D02*
X3936Y2951D01*
X3949Y2951D02*
X4036Y2951D01*
X4049Y2951D02*
X4136Y2951D01*
X4149Y2951D02*
X4236Y2951D01*
X2749Y2950D02*
X2836Y2950D01*
X2849Y2950D02*
X2936Y2950D01*
X2949Y2950D02*
X3036Y2950D01*
X3049Y2950D02*
X3136Y2950D01*
X3149Y2950D02*
X3236Y2950D01*
X3249Y2950D02*
X3336Y2950D01*
X3349Y2950D02*
X3436Y2950D01*
X3449Y2950D02*
X3536Y2950D01*
X3549Y2950D02*
X3636Y2950D01*
X3649Y2950D02*
X3736Y2950D01*
X3749Y2950D02*
X3836Y2950D01*
X3849Y2950D02*
X3936Y2950D01*
X3949Y2950D02*
X4036Y2950D01*
X4049Y2950D02*
X4136Y2950D01*
X4149Y2950D02*
X4236Y2950D01*
X2749Y2949D02*
X2836Y2949D01*
X2849Y2949D02*
X2936Y2949D01*
X2949Y2949D02*
X3036Y2949D01*
X3049Y2949D02*
X3136Y2949D01*
X3149Y2949D02*
X3236Y2949D01*
X3249Y2949D02*
X3336Y2949D01*
X3349Y2949D02*
X3436Y2949D01*
X3449Y2949D02*
X3536Y2949D01*
X3549Y2949D02*
X3636Y2949D01*
X3649Y2949D02*
X3736Y2949D01*
X3749Y2949D02*
X3836Y2949D01*
X3849Y2949D02*
X3936Y2949D01*
X3949Y2949D02*
X4036Y2949D01*
X4049Y2949D02*
X4136Y2949D01*
X4149Y2949D02*
X4236Y2949D01*
X2749Y2948D02*
X2836Y2948D01*
X2849Y2948D02*
X2936Y2948D01*
X2949Y2948D02*
X3036Y2948D01*
X3049Y2948D02*
X3136Y2948D01*
X3149Y2948D02*
X3236Y2948D01*
X3249Y2948D02*
X3336Y2948D01*
X3349Y2948D02*
X3436Y2948D01*
X3449Y2948D02*
X3536Y2948D01*
X3549Y2948D02*
X3636Y2948D01*
X3649Y2948D02*
X3736Y2948D01*
X3749Y2948D02*
X3836Y2948D01*
X3849Y2948D02*
X3936Y2948D01*
X3949Y2948D02*
X4036Y2948D01*
X4049Y2948D02*
X4136Y2948D01*
X4149Y2948D02*
X4236Y2948D01*
X2749Y2947D02*
X2836Y2947D01*
X2849Y2947D02*
X2936Y2947D01*
X2949Y2947D02*
X3036Y2947D01*
X3049Y2947D02*
X3136Y2947D01*
X3149Y2947D02*
X3236Y2947D01*
X3249Y2947D02*
X3336Y2947D01*
X3349Y2947D02*
X3436Y2947D01*
X3449Y2947D02*
X3536Y2947D01*
X3549Y2947D02*
X3636Y2947D01*
X3649Y2947D02*
X3736Y2947D01*
X3749Y2947D02*
X3836Y2947D01*
X3849Y2947D02*
X3936Y2947D01*
X3949Y2947D02*
X4036Y2947D01*
X4049Y2947D02*
X4136Y2947D01*
X4149Y2947D02*
X4236Y2947D01*
X2749Y2946D02*
X2836Y2946D01*
X2849Y2946D02*
X2936Y2946D01*
X2949Y2946D02*
X3036Y2946D01*
X3049Y2946D02*
X3136Y2946D01*
X3149Y2946D02*
X3236Y2946D01*
X3249Y2946D02*
X3336Y2946D01*
X3349Y2946D02*
X3436Y2946D01*
X3449Y2946D02*
X3536Y2946D01*
X3549Y2946D02*
X3636Y2946D01*
X3649Y2946D02*
X3736Y2946D01*
X3749Y2946D02*
X3836Y2946D01*
X3849Y2946D02*
X3936Y2946D01*
X3949Y2946D02*
X4036Y2946D01*
X4049Y2946D02*
X4136Y2946D01*
X4149Y2946D02*
X4236Y2946D01*
X2749Y2945D02*
X2836Y2945D01*
X2849Y2945D02*
X2936Y2945D01*
X2949Y2945D02*
X3036Y2945D01*
X3049Y2945D02*
X3136Y2945D01*
X3149Y2945D02*
X3236Y2945D01*
X3249Y2945D02*
X3336Y2945D01*
X3349Y2945D02*
X3436Y2945D01*
X3449Y2945D02*
X3536Y2945D01*
X3549Y2945D02*
X3636Y2945D01*
X3649Y2945D02*
X3736Y2945D01*
X3749Y2945D02*
X3836Y2945D01*
X3850Y2945D02*
X3936Y2945D01*
X3949Y2945D02*
X4036Y2945D01*
X4049Y2945D02*
X4136Y2945D01*
X4149Y2945D02*
X4236Y2945D01*
X2749Y2944D02*
X2836Y2944D01*
X2849Y2944D02*
X2936Y2944D01*
X2949Y2944D02*
X3036Y2944D01*
X3049Y2944D02*
X3136Y2944D01*
X3149Y2944D02*
X3236Y2944D01*
X3249Y2944D02*
X3336Y2944D01*
X3349Y2944D02*
X3436Y2944D01*
X3449Y2944D02*
X3536Y2944D01*
X3549Y2944D02*
X3636Y2944D01*
X3649Y2944D02*
X3736Y2944D01*
X3749Y2944D02*
X3836Y2944D01*
X3850Y2944D02*
X3936Y2944D01*
X3949Y2944D02*
X4036Y2944D01*
X4049Y2944D02*
X4136Y2944D01*
X4149Y2944D02*
X4235Y2944D01*
X2749Y2943D02*
X2836Y2943D01*
X2849Y2943D02*
X2936Y2943D01*
X2949Y2943D02*
X3036Y2943D01*
X3049Y2943D02*
X3135Y2943D01*
X3149Y2943D02*
X3235Y2943D01*
X3249Y2943D02*
X3335Y2943D01*
X3349Y2943D02*
X3435Y2943D01*
X3449Y2943D02*
X3535Y2943D01*
X3549Y2943D02*
X3635Y2943D01*
X3649Y2943D02*
X3735Y2943D01*
X3749Y2943D02*
X3835Y2943D01*
X3850Y2943D02*
X3936Y2943D01*
X3950Y2943D02*
X4036Y2943D01*
X4049Y2943D02*
X4136Y2943D01*
X4149Y2943D02*
X4235Y2943D01*
X2750Y2942D02*
X2835Y2942D01*
X2849Y2942D02*
X2935Y2942D01*
X2949Y2942D02*
X3035Y2942D01*
X3049Y2942D02*
X3135Y2942D01*
X3149Y2942D02*
X3235Y2942D01*
X3249Y2942D02*
X3335Y2942D01*
X3349Y2942D02*
X3435Y2942D01*
X3449Y2942D02*
X3535Y2942D01*
X3549Y2942D02*
X3635Y2942D01*
X3649Y2942D02*
X3735Y2942D01*
X3749Y2942D02*
X3835Y2942D01*
X3850Y2942D02*
X3936Y2942D01*
X3950Y2942D02*
X4036Y2942D01*
X4050Y2942D02*
X4135Y2942D01*
X4149Y2942D02*
X4235Y2942D01*
X2750Y2941D02*
X2835Y2941D01*
X2850Y2941D02*
X2935Y2941D01*
X2950Y2941D02*
X3035Y2941D01*
X3050Y2941D02*
X3135Y2941D01*
X3150Y2941D02*
X3235Y2941D01*
X3250Y2941D02*
X3335Y2941D01*
X3350Y2941D02*
X3435Y2941D01*
X3450Y2941D02*
X3535Y2941D01*
X3550Y2941D02*
X3635Y2941D01*
X3650Y2941D02*
X3735Y2941D01*
X3750Y2941D02*
X3835Y2941D01*
X3850Y2941D02*
X3936Y2941D01*
X3950Y2941D02*
X4035Y2941D01*
X4050Y2941D02*
X4135Y2941D01*
X4150Y2941D02*
X4235Y2941D01*
X2750Y2940D02*
X2835Y2940D01*
X2850Y2940D02*
X2935Y2940D01*
X2950Y2940D02*
X3035Y2940D01*
X3050Y2940D02*
X3135Y2940D01*
X3150Y2940D02*
X3235Y2940D01*
X3250Y2940D02*
X3335Y2940D01*
X3350Y2940D02*
X3435Y2940D01*
X3450Y2940D02*
X3535Y2940D01*
X3550Y2940D02*
X3635Y2940D01*
X3650Y2940D02*
X3735Y2940D01*
X3750Y2940D02*
X3835Y2940D01*
X3850Y2940D02*
X3935Y2940D01*
X3950Y2940D02*
X4035Y2940D01*
X4050Y2940D02*
X4135Y2940D01*
X4150Y2940D02*
X4235Y2940D01*
X2750Y2939D02*
X2835Y2939D01*
X2850Y2939D02*
X2935Y2939D01*
X2950Y2939D02*
X3035Y2939D01*
X3050Y2939D02*
X3135Y2939D01*
X3150Y2939D02*
X3235Y2939D01*
X3250Y2939D02*
X3335Y2939D01*
X3350Y2939D02*
X3435Y2939D01*
X3450Y2939D02*
X3535Y2939D01*
X3550Y2939D02*
X3635Y2939D01*
X3650Y2939D02*
X3735Y2939D01*
X3750Y2939D02*
X3835Y2939D01*
X3850Y2939D02*
X3935Y2939D01*
X3950Y2939D02*
X4035Y2939D01*
X4050Y2939D02*
X4135Y2939D01*
X4150Y2939D02*
X4235Y2939D01*
X2750Y2938D02*
X2835Y2938D01*
X2850Y2938D02*
X2935Y2938D01*
X2950Y2938D02*
X3035Y2938D01*
X3050Y2938D02*
X3135Y2938D01*
X3150Y2938D02*
X3235Y2938D01*
X3250Y2938D02*
X3335Y2938D01*
X3350Y2938D02*
X3435Y2938D01*
X3450Y2938D02*
X3535Y2938D01*
X3550Y2938D02*
X3635Y2938D01*
X3650Y2938D02*
X3735Y2938D01*
X3750Y2938D02*
X3835Y2938D01*
X3851Y2938D02*
X3935Y2938D01*
X3950Y2938D02*
X4035Y2938D01*
X4050Y2938D02*
X4135Y2938D01*
X4150Y2938D02*
X4234Y2938D01*
X2750Y2937D02*
X2834Y2937D01*
X2850Y2937D02*
X2934Y2937D01*
X2950Y2937D02*
X3034Y2937D01*
X3050Y2937D02*
X3134Y2937D01*
X3150Y2937D02*
X3234Y2937D01*
X3250Y2937D02*
X3334Y2937D01*
X3350Y2937D02*
X3434Y2937D01*
X3450Y2937D02*
X3534Y2937D01*
X3550Y2937D02*
X3634Y2937D01*
X3650Y2937D02*
X3734Y2937D01*
X3750Y2937D02*
X3834Y2937D01*
X3851Y2937D02*
X3935Y2937D01*
X3951Y2937D02*
X4035Y2937D01*
X4051Y2937D02*
X4134Y2937D01*
X4150Y2937D02*
X4234Y2937D01*
X2751Y2936D02*
X2834Y2936D01*
X2851Y2936D02*
X2934Y2936D01*
X2951Y2936D02*
X3034Y2936D01*
X3051Y2936D02*
X3134Y2936D01*
X3151Y2936D02*
X3234Y2936D01*
X3251Y2936D02*
X3334Y2936D01*
X3351Y2936D02*
X3434Y2936D01*
X3451Y2936D02*
X3534Y2936D01*
X3551Y2936D02*
X3634Y2936D01*
X3651Y2936D02*
X3734Y2936D01*
X3751Y2936D02*
X3834Y2936D01*
X3851Y2936D02*
X3934Y2936D01*
X3951Y2936D02*
X4034Y2936D01*
X4051Y2936D02*
X4134Y2936D01*
X4151Y2936D02*
X4234Y2936D01*
X2751Y2935D02*
X2834Y2935D01*
X2851Y2935D02*
X2934Y2935D01*
X2951Y2935D02*
X3034Y2935D01*
X3051Y2935D02*
X3134Y2935D01*
X3151Y2935D02*
X3234Y2935D01*
X3251Y2935D02*
X3334Y2935D01*
X3351Y2935D02*
X3434Y2935D01*
X3451Y2935D02*
X3534Y2935D01*
X3551Y2935D02*
X3634Y2935D01*
X3651Y2935D02*
X3734Y2935D01*
X3751Y2935D02*
X3834Y2935D01*
X3851Y2935D02*
X3934Y2935D01*
X3951Y2935D02*
X4034Y2935D01*
X4051Y2935D02*
X4134Y2935D01*
X4151Y2935D02*
X4234Y2935D01*
X2751Y2934D02*
X2834Y2934D01*
X2851Y2934D02*
X2934Y2934D01*
X2951Y2934D02*
X3034Y2934D01*
X3051Y2934D02*
X3134Y2934D01*
X3151Y2934D02*
X3233Y2934D01*
X3251Y2934D02*
X3333Y2934D01*
X3351Y2934D02*
X3433Y2934D01*
X3451Y2934D02*
X3533Y2934D01*
X3551Y2934D02*
X3633Y2934D01*
X3651Y2934D02*
X3733Y2934D01*
X3751Y2934D02*
X3833Y2934D01*
X3852Y2934D02*
X3934Y2934D01*
X3952Y2934D02*
X4034Y2934D01*
X4051Y2934D02*
X4134Y2934D01*
X4151Y2934D02*
X4233Y2934D01*
X2752Y2933D02*
X2833Y2933D01*
X2852Y2933D02*
X2933Y2933D01*
X2952Y2933D02*
X3033Y2933D01*
X3052Y2933D02*
X3133Y2933D01*
X3152Y2933D02*
X3233Y2933D01*
X3252Y2933D02*
X3333Y2933D01*
X3352Y2933D02*
X3433Y2933D01*
X3452Y2933D02*
X3533Y2933D01*
X3552Y2933D02*
X3633Y2933D01*
X3652Y2933D02*
X3733Y2933D01*
X3752Y2933D02*
X3833Y2933D01*
X3852Y2933D02*
X3934Y2933D01*
X3952Y2933D02*
X4033Y2933D01*
X4052Y2933D02*
X4133Y2933D01*
X4152Y2933D02*
X4233Y2933D01*
X2752Y2932D02*
X2833Y2932D01*
X2852Y2932D02*
X2933Y2932D01*
X2952Y2932D02*
X3033Y2932D01*
X3052Y2932D02*
X3133Y2932D01*
X3152Y2932D02*
X3233Y2932D01*
X3252Y2932D02*
X3333Y2932D01*
X3352Y2932D02*
X3433Y2932D01*
X3452Y2932D02*
X3533Y2932D01*
X3552Y2932D02*
X3633Y2932D01*
X3652Y2932D02*
X3733Y2932D01*
X3752Y2932D02*
X3833Y2932D01*
X3852Y2932D02*
X3933Y2932D01*
X3952Y2932D02*
X4033Y2932D01*
X4052Y2932D02*
X4133Y2932D01*
X4152Y2932D02*
X4233Y2932D01*
X2752Y2931D02*
X2832Y2931D01*
X2852Y2931D02*
X2932Y2931D01*
X2952Y2931D02*
X3032Y2931D01*
X3052Y2931D02*
X3132Y2931D01*
X3152Y2931D02*
X3232Y2931D01*
X3252Y2931D02*
X3332Y2931D01*
X3352Y2931D02*
X3432Y2931D01*
X3452Y2931D02*
X3532Y2931D01*
X3552Y2931D02*
X3632Y2931D01*
X3652Y2931D02*
X3732Y2931D01*
X3752Y2931D02*
X3832Y2931D01*
X3853Y2931D02*
X3933Y2931D01*
X3953Y2931D02*
X4033Y2931D01*
X4052Y2931D02*
X4132Y2931D01*
X4152Y2931D02*
X4232Y2931D01*
X2753Y2930D02*
X2832Y2930D01*
X2853Y2930D02*
X2932Y2930D01*
X2953Y2930D02*
X3032Y2930D01*
X3053Y2930D02*
X3132Y2930D01*
X3153Y2930D02*
X3232Y2930D01*
X3253Y2930D02*
X3332Y2930D01*
X3353Y2930D02*
X3432Y2930D01*
X3453Y2930D02*
X3532Y2930D01*
X3553Y2930D02*
X3632Y2930D01*
X3653Y2930D02*
X3732Y2930D01*
X3753Y2930D02*
X3832Y2930D01*
X3853Y2930D02*
X3932Y2930D01*
X3953Y2930D02*
X4032Y2930D01*
X4053Y2930D02*
X4132Y2930D01*
X4153Y2930D02*
X4232Y2930D01*
X2753Y2929D02*
X2832Y2929D01*
X2853Y2929D02*
X2931Y2929D01*
X2953Y2929D02*
X3031Y2929D01*
X3053Y2929D02*
X3131Y2929D01*
X3153Y2929D02*
X3231Y2929D01*
X3253Y2929D02*
X3331Y2929D01*
X3353Y2929D02*
X3431Y2929D01*
X3453Y2929D02*
X3531Y2929D01*
X3553Y2929D02*
X3631Y2929D01*
X3653Y2929D02*
X3731Y2929D01*
X3753Y2929D02*
X3831Y2929D01*
X3854Y2929D02*
X3932Y2929D01*
X3954Y2929D02*
X4032Y2929D01*
X4053Y2929D02*
X4132Y2929D01*
X4153Y2929D02*
X4231Y2929D01*
X2754Y2928D02*
X2831Y2928D01*
X2854Y2928D02*
X2931Y2928D01*
X2954Y2928D02*
X3031Y2928D01*
X3054Y2928D02*
X3131Y2928D01*
X3154Y2928D02*
X3231Y2928D01*
X3254Y2928D02*
X3331Y2928D01*
X3354Y2928D02*
X3431Y2928D01*
X3454Y2928D02*
X3531Y2928D01*
X3554Y2928D02*
X3631Y2928D01*
X3654Y2928D02*
X3731Y2928D01*
X3754Y2928D02*
X3831Y2928D01*
X3854Y2928D02*
X3931Y2928D01*
X3954Y2928D02*
X4031Y2928D01*
X4054Y2928D02*
X4131Y2928D01*
X4154Y2928D02*
X4231Y2928D01*
X2754Y2927D02*
X2830Y2927D01*
X2854Y2927D02*
X2930Y2927D01*
X2954Y2927D02*
X3030Y2927D01*
X3054Y2927D02*
X3130Y2927D01*
X3154Y2927D02*
X3230Y2927D01*
X3254Y2927D02*
X3330Y2927D01*
X3354Y2927D02*
X3430Y2927D01*
X3454Y2927D02*
X3530Y2927D01*
X3554Y2927D02*
X3630Y2927D01*
X3654Y2927D02*
X3730Y2927D01*
X3754Y2927D02*
X3830Y2927D01*
X3855Y2927D02*
X3931Y2927D01*
X3955Y2927D02*
X4031Y2927D01*
X4054Y2927D02*
X4131Y2927D01*
X4154Y2927D02*
X4230Y2927D01*
X2755Y2926D02*
X2830Y2926D01*
X2855Y2926D02*
X2930Y2926D01*
X2955Y2926D02*
X3030Y2926D01*
X3055Y2926D02*
X3130Y2926D01*
X3155Y2926D02*
X3230Y2926D01*
X3255Y2926D02*
X3330Y2926D01*
X3355Y2926D02*
X3430Y2926D01*
X3455Y2926D02*
X3530Y2926D01*
X3555Y2926D02*
X3630Y2926D01*
X3655Y2926D02*
X3730Y2926D01*
X3755Y2926D02*
X3830Y2926D01*
X3855Y2926D02*
X3930Y2926D01*
X3955Y2926D02*
X4030Y2926D01*
X4055Y2926D02*
X4130Y2926D01*
X4155Y2926D02*
X4230Y2926D01*
X2756Y2925D02*
X2829Y2925D01*
X2856Y2925D02*
X2929Y2925D01*
X2956Y2925D02*
X3029Y2925D01*
X3056Y2925D02*
X3129Y2925D01*
X3156Y2925D02*
X3229Y2925D01*
X3256Y2925D02*
X3329Y2925D01*
X3356Y2925D02*
X3429Y2925D01*
X3456Y2925D02*
X3529Y2925D01*
X3556Y2925D02*
X3629Y2925D01*
X3656Y2925D02*
X3729Y2925D01*
X3755Y2925D02*
X3829Y2925D01*
X3856Y2925D02*
X3930Y2925D01*
X3956Y2925D02*
X4029Y2925D01*
X4056Y2925D02*
X4129Y2925D01*
X4155Y2925D02*
X4229Y2925D01*
X2756Y2924D02*
X2829Y2924D01*
X2856Y2924D02*
X2929Y2924D01*
X2956Y2924D02*
X3029Y2924D01*
X3056Y2924D02*
X3129Y2924D01*
X3156Y2924D02*
X3229Y2924D01*
X3256Y2924D02*
X3329Y2924D01*
X3356Y2924D02*
X3429Y2924D01*
X3456Y2924D02*
X3529Y2924D01*
X3556Y2924D02*
X3629Y2924D01*
X3656Y2924D02*
X3729Y2924D01*
X3756Y2924D02*
X3829Y2924D01*
X3857Y2924D02*
X3929Y2924D01*
X3956Y2924D02*
X4029Y2924D01*
X4056Y2924D02*
X4129Y2924D01*
X4156Y2924D02*
X4229Y2924D01*
X2757Y2923D02*
X2828Y2923D01*
X2857Y2923D02*
X2928Y2923D01*
X2957Y2923D02*
X3028Y2923D01*
X3057Y2923D02*
X3128Y2923D01*
X3157Y2923D02*
X3228Y2923D01*
X3257Y2923D02*
X3328Y2923D01*
X3357Y2923D02*
X3428Y2923D01*
X3457Y2923D02*
X3528Y2923D01*
X3557Y2923D02*
X3628Y2923D01*
X3657Y2923D02*
X3728Y2923D01*
X3757Y2923D02*
X3828Y2923D01*
X3857Y2923D02*
X3928Y2923D01*
X3957Y2923D02*
X4028Y2923D01*
X4057Y2923D02*
X4128Y2923D01*
X4157Y2923D02*
X4228Y2923D01*
X2758Y2922D02*
X2827Y2922D01*
X2858Y2922D02*
X2927Y2922D01*
X2958Y2922D02*
X3027Y2922D01*
X3058Y2922D02*
X3127Y2922D01*
X3158Y2922D02*
X3227Y2922D01*
X3258Y2922D02*
X3327Y2922D01*
X3358Y2922D02*
X3427Y2922D01*
X3458Y2922D02*
X3527Y2922D01*
X3558Y2922D02*
X3627Y2922D01*
X3658Y2922D02*
X3727Y2922D01*
X3758Y2922D02*
X3827Y2922D01*
X3858Y2922D02*
X3928Y2922D01*
X3958Y2922D02*
X4027Y2922D01*
X4058Y2922D02*
X4127Y2922D01*
X4157Y2922D02*
X4227Y2922D01*
X2758Y2921D02*
X2827Y2921D01*
X2858Y2921D02*
X2926Y2921D01*
X2958Y2921D02*
X3026Y2921D01*
X3058Y2921D02*
X3126Y2921D01*
X3158Y2921D02*
X3226Y2921D01*
X3258Y2921D02*
X3326Y2921D01*
X3358Y2921D02*
X3426Y2921D01*
X3458Y2921D02*
X3526Y2921D01*
X3558Y2921D02*
X3626Y2921D01*
X3658Y2921D02*
X3726Y2921D01*
X3758Y2921D02*
X3826Y2921D01*
X3859Y2921D02*
X3927Y2921D01*
X3959Y2921D02*
X4027Y2921D01*
X4058Y2921D02*
X4127Y2921D01*
X4158Y2921D02*
X4226Y2921D01*
X2759Y2920D02*
X2826Y2920D01*
X2859Y2920D02*
X2926Y2920D01*
X2959Y2920D02*
X3026Y2920D01*
X3059Y2920D02*
X3126Y2920D01*
X3159Y2920D02*
X3226Y2920D01*
X3259Y2920D02*
X3326Y2920D01*
X3359Y2920D02*
X3426Y2920D01*
X3459Y2920D02*
X3526Y2920D01*
X3559Y2920D02*
X3626Y2920D01*
X3659Y2920D02*
X3726Y2920D01*
X3759Y2920D02*
X3826Y2920D01*
X3859Y2920D02*
X3926Y2920D01*
X3959Y2920D02*
X4026Y2920D01*
X4059Y2920D02*
X4126Y2920D01*
X4159Y2920D02*
X4226Y2920D01*
X2760Y2919D02*
X2825Y2919D01*
X2860Y2919D02*
X2925Y2919D01*
X2960Y2919D02*
X3025Y2919D01*
X3060Y2919D02*
X3125Y2919D01*
X3160Y2919D02*
X3225Y2919D01*
X3260Y2919D02*
X3325Y2919D01*
X3360Y2919D02*
X3425Y2919D01*
X3460Y2919D02*
X3525Y2919D01*
X3560Y2919D02*
X3625Y2919D01*
X3660Y2919D02*
X3725Y2919D01*
X3760Y2919D02*
X3825Y2919D01*
X3860Y2919D02*
X3925Y2919D01*
X3960Y2919D02*
X4025Y2919D01*
X4060Y2919D02*
X4125Y2919D01*
X4160Y2919D02*
X4225Y2919D01*
X2761Y2918D02*
X2824Y2918D01*
X2861Y2918D02*
X2924Y2918D01*
X2961Y2918D02*
X3024Y2918D01*
X3061Y2918D02*
X3124Y2918D01*
X3161Y2918D02*
X3224Y2918D01*
X3261Y2918D02*
X3324Y2918D01*
X3361Y2918D02*
X3424Y2918D01*
X3461Y2918D02*
X3524Y2918D01*
X3561Y2918D02*
X3624Y2918D01*
X3661Y2918D02*
X3724Y2918D01*
X3761Y2918D02*
X3824Y2918D01*
X3861Y2918D02*
X3924Y2918D01*
X3961Y2918D02*
X4024Y2918D01*
X4061Y2918D02*
X4124Y2918D01*
X4161Y2918D02*
X4224Y2918D01*
X2762Y2917D02*
X2823Y2917D01*
X2862Y2917D02*
X2923Y2917D01*
X2962Y2917D02*
X3023Y2917D01*
X3062Y2917D02*
X3123Y2917D01*
X3162Y2917D02*
X3223Y2917D01*
X3262Y2917D02*
X3323Y2917D01*
X3362Y2917D02*
X3423Y2917D01*
X3462Y2917D02*
X3523Y2917D01*
X3562Y2917D02*
X3623Y2917D01*
X3662Y2917D02*
X3723Y2917D01*
X3762Y2917D02*
X3823Y2917D01*
X3862Y2917D02*
X3923Y2917D01*
X3962Y2917D02*
X4023Y2917D01*
X4062Y2917D02*
X4123Y2917D01*
X4162Y2917D02*
X4223Y2917D01*
X2763Y2916D02*
X2822Y2916D01*
X2863Y2916D02*
X2922Y2916D01*
X2963Y2916D02*
X3022Y2916D01*
X3063Y2916D02*
X3122Y2916D01*
X3163Y2916D02*
X3222Y2916D01*
X3263Y2916D02*
X3322Y2916D01*
X3363Y2916D02*
X3422Y2916D01*
X3463Y2916D02*
X3522Y2916D01*
X3563Y2916D02*
X3622Y2916D01*
X3663Y2916D02*
X3722Y2916D01*
X3763Y2916D02*
X3822Y2916D01*
X3863Y2916D02*
X3922Y2916D01*
X3963Y2916D02*
X4022Y2916D01*
X4063Y2916D02*
X4122Y2916D01*
X4163Y2916D02*
X4222Y2916D01*
X2764Y2915D02*
X2821Y2915D01*
X2864Y2915D02*
X2921Y2915D01*
X2964Y2915D02*
X3021Y2915D01*
X3064Y2915D02*
X3121Y2915D01*
X3164Y2915D02*
X3221Y2915D01*
X3264Y2915D02*
X3321Y2915D01*
X3364Y2915D02*
X3421Y2915D01*
X3464Y2915D02*
X3521Y2915D01*
X3564Y2915D02*
X3621Y2915D01*
X3664Y2915D02*
X3721Y2915D01*
X3764Y2915D02*
X3821Y2915D01*
X3864Y2915D02*
X3921Y2915D01*
X3964Y2915D02*
X4021Y2915D01*
X4064Y2915D02*
X4121Y2915D01*
X4164Y2915D02*
X4221Y2915D01*
X2765Y2914D02*
X2820Y2914D01*
X2865Y2914D02*
X2920Y2914D01*
X2965Y2914D02*
X3020Y2914D01*
X3065Y2914D02*
X3120Y2914D01*
X3165Y2914D02*
X3220Y2914D01*
X3265Y2914D02*
X3320Y2914D01*
X3365Y2914D02*
X3420Y2914D01*
X3465Y2914D02*
X3520Y2914D01*
X3565Y2914D02*
X3620Y2914D01*
X3665Y2914D02*
X3720Y2914D01*
X3765Y2914D02*
X3820Y2914D01*
X3866Y2914D02*
X3920Y2914D01*
X3965Y2914D02*
X4020Y2914D01*
X4065Y2914D02*
X4120Y2914D01*
X4165Y2914D02*
X4220Y2914D01*
X2766Y2913D02*
X2818Y2913D01*
X2866Y2913D02*
X2918Y2913D01*
X2966Y2913D02*
X3018Y2913D01*
X3066Y2913D02*
X3118Y2913D01*
X3166Y2913D02*
X3218Y2913D01*
X3266Y2913D02*
X3318Y2913D01*
X3366Y2913D02*
X3418Y2913D01*
X3466Y2913D02*
X3518Y2913D01*
X3566Y2913D02*
X3618Y2913D01*
X3666Y2913D02*
X3718Y2913D01*
X3766Y2913D02*
X3818Y2913D01*
X3867Y2913D02*
X3919Y2913D01*
X3967Y2913D02*
X4019Y2913D01*
X4067Y2913D02*
X4118Y2913D01*
X4166Y2913D02*
X4218Y2913D01*
X2768Y2912D02*
X2817Y2912D01*
X2868Y2912D02*
X2917Y2912D01*
X2968Y2912D02*
X3017Y2912D01*
X3068Y2912D02*
X3117Y2912D01*
X3168Y2912D02*
X3217Y2912D01*
X3268Y2912D02*
X3317Y2912D01*
X3368Y2912D02*
X3417Y2912D01*
X3468Y2912D02*
X3517Y2912D01*
X3568Y2912D02*
X3617Y2912D01*
X3668Y2912D02*
X3717Y2912D01*
X3768Y2912D02*
X3817Y2912D01*
X3868Y2912D02*
X3917Y2912D01*
X3968Y2912D02*
X4017Y2912D01*
X4068Y2912D02*
X4117Y2912D01*
X4168Y2912D02*
X4217Y2912D01*
X2769Y2911D02*
X2815Y2911D01*
X2869Y2911D02*
X2915Y2911D01*
X2969Y2911D02*
X3015Y2911D01*
X3069Y2911D02*
X3115Y2911D01*
X3169Y2911D02*
X3215Y2911D01*
X3269Y2911D02*
X3315Y2911D01*
X3369Y2911D02*
X3415Y2911D01*
X3469Y2911D02*
X3515Y2911D01*
X3569Y2911D02*
X3615Y2911D01*
X3669Y2911D02*
X3715Y2911D01*
X3769Y2911D02*
X3815Y2911D01*
X3870Y2911D02*
X3916Y2911D01*
X3970Y2911D02*
X4016Y2911D01*
X4069Y2911D02*
X4116Y2911D01*
X4169Y2911D02*
X4215Y2911D01*
X2771Y2910D02*
X2814Y2910D01*
X2871Y2910D02*
X2914Y2910D01*
X2971Y2910D02*
X3014Y2910D01*
X3071Y2910D02*
X3114Y2910D01*
X3171Y2910D02*
X3214Y2910D01*
X3271Y2910D02*
X3314Y2910D01*
X3371Y2910D02*
X3414Y2910D01*
X3471Y2910D02*
X3514Y2910D01*
X3571Y2910D02*
X3614Y2910D01*
X3671Y2910D02*
X3714Y2910D01*
X3771Y2910D02*
X3814Y2910D01*
X3871Y2910D02*
X3914Y2910D01*
X3971Y2910D02*
X4014Y2910D01*
X4071Y2910D02*
X4114Y2910D01*
X4171Y2910D02*
X4214Y2910D01*
X2773Y2909D02*
X2812Y2909D01*
X2873Y2909D02*
X2912Y2909D01*
X2973Y2909D02*
X3012Y2909D01*
X3073Y2909D02*
X3112Y2909D01*
X3173Y2909D02*
X3212Y2909D01*
X3273Y2909D02*
X3312Y2909D01*
X3373Y2909D02*
X3412Y2909D01*
X3473Y2909D02*
X3512Y2909D01*
X3573Y2909D02*
X3612Y2909D01*
X3673Y2909D02*
X3712Y2909D01*
X3773Y2909D02*
X3812Y2909D01*
X3873Y2909D02*
X3912Y2909D01*
X3973Y2909D02*
X4012Y2909D01*
X4073Y2909D02*
X4112Y2909D01*
X4173Y2909D02*
X4212Y2909D01*
X2775Y2908D02*
X2810Y2908D01*
X2875Y2908D02*
X2910Y2908D01*
X2975Y2908D02*
X3010Y2908D01*
X3075Y2908D02*
X3110Y2908D01*
X3175Y2908D02*
X3210Y2908D01*
X3275Y2908D02*
X3310Y2908D01*
X3375Y2908D02*
X3410Y2908D01*
X3475Y2908D02*
X3510Y2908D01*
X3575Y2908D02*
X3610Y2908D01*
X3675Y2908D02*
X3710Y2908D01*
X3775Y2908D02*
X3810Y2908D01*
X3875Y2908D02*
X3910Y2908D01*
X3975Y2908D02*
X4010Y2908D01*
X4075Y2908D02*
X4110Y2908D01*
X4175Y2908D02*
X4210Y2908D01*
X2777Y2907D02*
X2808Y2907D01*
X2877Y2907D02*
X2908Y2907D01*
X2977Y2907D02*
X3008Y2907D01*
X3077Y2907D02*
X3108Y2907D01*
X3177Y2907D02*
X3208Y2907D01*
X3277Y2907D02*
X3308Y2907D01*
X3377Y2907D02*
X3408Y2907D01*
X3477Y2907D02*
X3508Y2907D01*
X3577Y2907D02*
X3608Y2907D01*
X3677Y2907D02*
X3708Y2907D01*
X3777Y2907D02*
X3808Y2907D01*
X3878Y2907D02*
X3908Y2907D01*
X3977Y2907D02*
X4008Y2907D01*
X4077Y2907D02*
X4108Y2907D01*
X4177Y2907D02*
X4208Y2907D01*
X2780Y2906D02*
X2805Y2906D01*
X2880Y2906D02*
X2905Y2906D01*
X2980Y2906D02*
X3005Y2906D01*
X3080Y2906D02*
X3105Y2906D01*
X3180Y2906D02*
X3205Y2906D01*
X3280Y2906D02*
X3305Y2906D01*
X3380Y2906D02*
X3405Y2906D01*
X3480Y2906D02*
X3505Y2906D01*
X3580Y2906D02*
X3605Y2906D01*
X3680Y2906D02*
X3705Y2906D01*
X3780Y2906D02*
X3805Y2906D01*
X3880Y2906D02*
X3905Y2906D01*
X3980Y2906D02*
X4005Y2906D01*
X4080Y2906D02*
X4105Y2906D01*
X4180Y2906D02*
X4205Y2906D01*
X2784Y2905D02*
X2801Y2905D01*
X2884Y2905D02*
X2901Y2905D01*
X2984Y2905D02*
X3001Y2905D01*
X3084Y2905D02*
X3101Y2905D01*
X3184Y2905D02*
X3201Y2905D01*
X3284Y2905D02*
X3301Y2905D01*
X3384Y2905D02*
X3401Y2905D01*
X3484Y2905D02*
X3501Y2905D01*
X3584Y2905D02*
X3601Y2905D01*
X3684Y2905D02*
X3701Y2905D01*
X3784Y2905D02*
X3801Y2905D01*
X3884Y2905D02*
X3901Y2905D01*
X3984Y2905D02*
X4001Y2905D01*
X4084Y2905D02*
X4101Y2905D01*
X4184Y2905D02*
X4201Y2905D01*
X459Y2683D02*
X527Y2683D01*
X458Y2682D02*
X527Y2682D01*
X458Y2681D02*
X527Y2681D01*
X458Y2680D02*
X527Y2680D01*
X458Y2679D02*
X527Y2679D01*
X458Y2678D02*
X527Y2678D01*
X458Y2677D02*
X527Y2677D01*
X458Y2676D02*
X527Y2676D01*
X458Y2675D02*
X527Y2675D01*
X458Y2674D02*
X527Y2674D01*
X458Y2673D02*
X527Y2673D01*
X458Y2672D02*
X527Y2672D01*
X458Y2671D02*
X527Y2671D01*
X458Y2670D02*
X527Y2670D01*
X458Y2669D02*
X527Y2669D01*
X458Y2668D02*
X527Y2668D01*
X458Y2667D02*
X527Y2667D01*
X458Y2666D02*
X527Y2666D01*
X458Y2665D02*
X527Y2665D01*
X458Y2664D02*
X527Y2664D01*
X458Y2663D02*
X527Y2663D01*
X458Y2662D02*
X527Y2662D01*
X458Y2661D02*
X487Y2661D01*
X498Y2661D02*
X527Y2661D01*
X458Y2660D02*
X485Y2660D01*
X500Y2660D02*
X527Y2660D01*
X458Y2659D02*
X484Y2659D01*
X501Y2659D02*
X527Y2659D01*
X458Y2658D02*
X483Y2658D01*
X503Y2658D02*
X527Y2658D01*
X458Y2657D02*
X482Y2657D01*
X503Y2657D02*
X527Y2657D01*
X458Y2656D02*
X481Y2656D01*
X504Y2656D02*
X527Y2656D01*
X458Y2655D02*
X480Y2655D01*
X505Y2655D02*
X527Y2655D01*
X458Y2654D02*
X480Y2654D01*
X505Y2654D02*
X527Y2654D01*
X458Y2653D02*
X479Y2653D01*
X506Y2653D02*
X527Y2653D01*
X458Y2652D02*
X479Y2652D01*
X506Y2652D02*
X527Y2652D01*
X458Y2651D02*
X479Y2651D01*
X506Y2651D02*
X527Y2651D01*
X458Y2650D02*
X479Y2650D01*
X507Y2650D02*
X527Y2650D01*
X458Y2649D02*
X479Y2649D01*
X507Y2649D02*
X527Y2649D01*
X458Y2648D02*
X479Y2648D01*
X507Y2648D02*
X527Y2648D01*
X458Y2647D02*
X479Y2647D01*
X507Y2647D02*
X527Y2647D01*
X458Y2646D02*
X479Y2646D01*
X506Y2646D02*
X527Y2646D01*
X458Y2645D02*
X479Y2645D01*
X506Y2645D02*
X527Y2645D01*
X458Y2644D02*
X479Y2644D01*
X506Y2644D02*
X527Y2644D01*
X458Y2643D02*
X480Y2643D01*
X506Y2643D02*
X527Y2643D01*
X458Y2642D02*
X480Y2642D01*
X505Y2642D02*
X527Y2642D01*
X458Y2641D02*
X481Y2641D01*
X504Y2641D02*
X527Y2641D01*
X458Y2640D02*
X482Y2640D01*
X504Y2640D02*
X527Y2640D01*
X458Y2639D02*
X482Y2639D01*
X503Y2639D02*
X527Y2639D01*
X458Y2638D02*
X484Y2638D01*
X502Y2638D02*
X527Y2638D01*
X458Y2637D02*
X485Y2637D01*
X500Y2637D02*
X527Y2637D01*
X458Y2636D02*
X487Y2636D01*
X499Y2636D02*
X527Y2636D01*
X458Y2635D02*
X490Y2635D01*
X495Y2635D02*
X527Y2635D01*
X458Y2634D02*
X527Y2634D01*
X458Y2633D02*
X527Y2633D01*
X458Y2632D02*
X527Y2632D01*
X458Y2631D02*
X527Y2631D01*
X458Y2630D02*
X527Y2630D01*
X458Y2629D02*
X527Y2629D01*
X458Y2628D02*
X527Y2628D01*
X458Y2627D02*
X527Y2627D01*
X458Y2626D02*
X527Y2626D01*
X458Y2625D02*
X527Y2625D01*
X458Y2624D02*
X527Y2624D01*
X458Y2623D02*
X527Y2623D01*
X458Y2622D02*
X527Y2622D01*
X458Y2621D02*
X527Y2621D01*
X458Y2620D02*
X527Y2620D01*
X458Y2619D02*
X527Y2619D01*
X458Y2618D02*
X527Y2618D01*
X458Y2617D02*
X527Y2617D01*
X458Y2616D02*
X527Y2616D01*
X458Y2615D02*
X527Y2615D01*
X458Y2614D02*
X527Y2614D01*
X1471Y2580D02*
X1539Y2580D01*
X1471Y2579D02*
X1539Y2579D01*
X1471Y2578D02*
X1539Y2578D01*
X1471Y2577D02*
X1539Y2577D01*
X1471Y2576D02*
X1539Y2576D01*
X1471Y2575D02*
X1539Y2575D01*
X1471Y2574D02*
X1539Y2574D01*
X1471Y2573D02*
X1539Y2573D01*
X1471Y2572D02*
X1539Y2572D01*
X1471Y2571D02*
X1539Y2571D01*
X1471Y2570D02*
X1539Y2570D01*
X1471Y2569D02*
X1539Y2569D01*
X1471Y2568D02*
X1539Y2568D01*
X1471Y2567D02*
X1539Y2567D01*
X1471Y2566D02*
X1539Y2566D01*
X1471Y2565D02*
X1539Y2565D01*
X1471Y2564D02*
X1539Y2564D01*
X1471Y2563D02*
X1539Y2563D01*
X1471Y2562D02*
X1539Y2562D01*
X1471Y2561D02*
X1539Y2561D01*
X1471Y2560D02*
X1539Y2560D01*
X1471Y2559D02*
X1503Y2559D01*
X1507Y2559D02*
X1539Y2559D01*
X1471Y2558D02*
X1499Y2558D01*
X1511Y2558D02*
X1539Y2558D01*
X1471Y2557D02*
X1497Y2557D01*
X1513Y2557D02*
X1539Y2557D01*
X1471Y2556D02*
X1496Y2556D01*
X1514Y2556D02*
X1539Y2556D01*
X1471Y2555D02*
X1495Y2555D01*
X1515Y2555D02*
X1539Y2555D01*
X1471Y2554D02*
X1494Y2554D01*
X1516Y2554D02*
X1539Y2554D01*
X1471Y2553D02*
X1493Y2553D01*
X1517Y2553D02*
X1539Y2553D01*
X1471Y2552D02*
X1493Y2552D01*
X1517Y2552D02*
X1539Y2552D01*
X1471Y2551D02*
X1492Y2551D01*
X1518Y2551D02*
X1539Y2551D01*
X1471Y2550D02*
X1492Y2550D01*
X1518Y2550D02*
X1539Y2550D01*
X1471Y2549D02*
X1491Y2549D01*
X1519Y2549D02*
X1539Y2549D01*
X1471Y2548D02*
X1491Y2548D01*
X1519Y2548D02*
X1539Y2548D01*
X1471Y2547D02*
X1491Y2547D01*
X1519Y2547D02*
X1539Y2547D01*
X1471Y2546D02*
X1491Y2546D01*
X1519Y2546D02*
X1539Y2546D01*
X1471Y2545D02*
X1491Y2545D01*
X1519Y2545D02*
X1539Y2545D01*
X1471Y2544D02*
X1491Y2544D01*
X1519Y2544D02*
X1539Y2544D01*
X1471Y2543D02*
X1491Y2543D01*
X1519Y2543D02*
X1539Y2543D01*
X1471Y2542D02*
X1492Y2542D01*
X1519Y2542D02*
X1539Y2542D01*
X1471Y2541D02*
X1492Y2541D01*
X1518Y2541D02*
X1539Y2541D01*
X1471Y2540D02*
X1492Y2540D01*
X1518Y2540D02*
X1539Y2540D01*
X1471Y2539D02*
X1493Y2539D01*
X1517Y2539D02*
X1539Y2539D01*
X1471Y2538D02*
X1493Y2538D01*
X1517Y2538D02*
X1539Y2538D01*
X1471Y2537D02*
X1494Y2537D01*
X1516Y2537D02*
X1539Y2537D01*
X1471Y2536D02*
X1495Y2536D01*
X1515Y2536D02*
X1539Y2536D01*
X1471Y2535D02*
X1496Y2535D01*
X1514Y2535D02*
X1539Y2535D01*
X1471Y2534D02*
X1498Y2534D01*
X1513Y2534D02*
X1539Y2534D01*
X1471Y2533D02*
X1499Y2533D01*
X1511Y2533D02*
X1539Y2533D01*
X1471Y2532D02*
X1539Y2532D01*
X1471Y2531D02*
X1539Y2531D01*
X1471Y2530D02*
X1539Y2530D01*
X1471Y2529D02*
X1539Y2529D01*
X1471Y2528D02*
X1539Y2528D01*
X1471Y2527D02*
X1539Y2527D01*
X1471Y2526D02*
X1539Y2526D01*
X1471Y2525D02*
X1539Y2525D01*
X1471Y2524D02*
X1539Y2524D01*
X1471Y2523D02*
X1539Y2523D01*
X1471Y2522D02*
X1539Y2522D01*
X1471Y2521D02*
X1539Y2521D01*
X1471Y2520D02*
X1539Y2520D01*
X1471Y2519D02*
X1539Y2519D01*
X1471Y2518D02*
X1539Y2518D01*
X1471Y2517D02*
X1539Y2517D01*
X1471Y2516D02*
X1539Y2516D01*
X1471Y2515D02*
X1539Y2515D01*
X1471Y2514D02*
X1539Y2514D01*
X1471Y2513D02*
X1539Y2513D01*
X1471Y2512D02*
X1539Y2512D01*
X1471Y2511D02*
X1539Y2511D01*
X2789Y1892D02*
X2796Y1892D01*
X2889Y1892D02*
X2896Y1892D01*
X2988Y1892D02*
X2996Y1892D01*
X3088Y1892D02*
X3096Y1892D01*
X3188Y1892D02*
X3196Y1892D01*
X3288Y1892D02*
X3296Y1892D01*
X3388Y1892D02*
X3396Y1892D01*
X3488Y1892D02*
X3496Y1892D01*
X3588Y1892D02*
X3596Y1892D01*
X3688Y1892D02*
X3696Y1892D01*
X3788Y1892D02*
X3796Y1892D01*
X3889Y1892D02*
X3897Y1892D01*
X3989Y1892D02*
X3997Y1892D01*
X4089Y1892D02*
X4096Y1892D01*
X4188Y1892D02*
X4196Y1892D01*
X2783Y1891D02*
X2802Y1891D01*
X2883Y1891D02*
X2902Y1891D01*
X2983Y1891D02*
X3002Y1891D01*
X3083Y1891D02*
X3102Y1891D01*
X3183Y1891D02*
X3202Y1891D01*
X3283Y1891D02*
X3302Y1891D01*
X3383Y1891D02*
X3402Y1891D01*
X3483Y1891D02*
X3502Y1891D01*
X3583Y1891D02*
X3602Y1891D01*
X3683Y1891D02*
X3702Y1891D01*
X3783Y1891D02*
X3802Y1891D01*
X3883Y1891D02*
X3902Y1891D01*
X3983Y1891D02*
X4002Y1891D01*
X4083Y1891D02*
X4102Y1891D01*
X4183Y1891D02*
X4202Y1891D01*
X2779Y1890D02*
X2806Y1890D01*
X2879Y1890D02*
X2906Y1890D01*
X2979Y1890D02*
X3006Y1890D01*
X3079Y1890D02*
X3106Y1890D01*
X3179Y1890D02*
X3206Y1890D01*
X3279Y1890D02*
X3306Y1890D01*
X3379Y1890D02*
X3406Y1890D01*
X3479Y1890D02*
X3506Y1890D01*
X3579Y1890D02*
X3606Y1890D01*
X3679Y1890D02*
X3706Y1890D01*
X3779Y1890D02*
X3806Y1890D01*
X3880Y1890D02*
X3906Y1890D01*
X3979Y1890D02*
X4006Y1890D01*
X4079Y1890D02*
X4106Y1890D01*
X4179Y1890D02*
X4206Y1890D01*
X2776Y1889D02*
X2809Y1889D01*
X2876Y1889D02*
X2909Y1889D01*
X2976Y1889D02*
X3009Y1889D01*
X3076Y1889D02*
X3108Y1889D01*
X3176Y1889D02*
X3208Y1889D01*
X3276Y1889D02*
X3308Y1889D01*
X3376Y1889D02*
X3408Y1889D01*
X3476Y1889D02*
X3508Y1889D01*
X3576Y1889D02*
X3608Y1889D01*
X3676Y1889D02*
X3708Y1889D01*
X3776Y1889D02*
X3808Y1889D01*
X3877Y1889D02*
X3909Y1889D01*
X3977Y1889D02*
X4009Y1889D01*
X4076Y1889D02*
X4109Y1889D01*
X4176Y1889D02*
X4208Y1889D01*
X2774Y1888D02*
X2811Y1888D01*
X2874Y1888D02*
X2911Y1888D01*
X2974Y1888D02*
X3011Y1888D01*
X3074Y1888D02*
X3111Y1888D01*
X3174Y1888D02*
X3211Y1888D01*
X3274Y1888D02*
X3311Y1888D01*
X3374Y1888D02*
X3411Y1888D01*
X3474Y1888D02*
X3511Y1888D01*
X3574Y1888D02*
X3611Y1888D01*
X3674Y1888D02*
X3711Y1888D01*
X3774Y1888D02*
X3811Y1888D01*
X3875Y1888D02*
X3911Y1888D01*
X3974Y1888D02*
X4011Y1888D01*
X4074Y1888D02*
X4111Y1888D01*
X4174Y1888D02*
X4211Y1888D01*
X2772Y1887D02*
X2813Y1887D01*
X2872Y1887D02*
X2913Y1887D01*
X2972Y1887D02*
X3013Y1887D01*
X3072Y1887D02*
X3113Y1887D01*
X3172Y1887D02*
X3213Y1887D01*
X3272Y1887D02*
X3313Y1887D01*
X3372Y1887D02*
X3413Y1887D01*
X3472Y1887D02*
X3513Y1887D01*
X3572Y1887D02*
X3613Y1887D01*
X3672Y1887D02*
X3713Y1887D01*
X3772Y1887D02*
X3813Y1887D01*
X3873Y1887D02*
X3913Y1887D01*
X3972Y1887D02*
X4013Y1887D01*
X4072Y1887D02*
X4113Y1887D01*
X4172Y1887D02*
X4213Y1887D01*
X2770Y1886D02*
X2814Y1886D01*
X2870Y1886D02*
X2914Y1886D01*
X2970Y1886D02*
X3014Y1886D01*
X3070Y1886D02*
X3114Y1886D01*
X3170Y1886D02*
X3214Y1886D01*
X3270Y1886D02*
X3314Y1886D01*
X3370Y1886D02*
X3414Y1886D01*
X3470Y1886D02*
X3514Y1886D01*
X3570Y1886D02*
X3614Y1886D01*
X3670Y1886D02*
X3714Y1886D01*
X3770Y1886D02*
X3814Y1886D01*
X3871Y1886D02*
X3915Y1886D01*
X3971Y1886D02*
X4015Y1886D01*
X4071Y1886D02*
X4114Y1886D01*
X4170Y1886D02*
X4214Y1886D01*
X2769Y1885D02*
X2816Y1885D01*
X2869Y1885D02*
X2916Y1885D01*
X2969Y1885D02*
X3016Y1885D01*
X3069Y1885D02*
X3116Y1885D01*
X3169Y1885D02*
X3216Y1885D01*
X3269Y1885D02*
X3316Y1885D01*
X3369Y1885D02*
X3416Y1885D01*
X3469Y1885D02*
X3516Y1885D01*
X3569Y1885D02*
X3616Y1885D01*
X3669Y1885D02*
X3716Y1885D01*
X3769Y1885D02*
X3816Y1885D01*
X3869Y1885D02*
X3916Y1885D01*
X3969Y1885D02*
X4016Y1885D01*
X4069Y1885D02*
X4116Y1885D01*
X4169Y1885D02*
X4216Y1885D01*
X2767Y1884D02*
X2817Y1884D01*
X2867Y1884D02*
X2917Y1884D01*
X2967Y1884D02*
X3017Y1884D01*
X3067Y1884D02*
X3117Y1884D01*
X3167Y1884D02*
X3217Y1884D01*
X3267Y1884D02*
X3317Y1884D01*
X3367Y1884D02*
X3417Y1884D01*
X3467Y1884D02*
X3517Y1884D01*
X3567Y1884D02*
X3617Y1884D01*
X3667Y1884D02*
X3717Y1884D01*
X3767Y1884D02*
X3817Y1884D01*
X3868Y1884D02*
X3918Y1884D01*
X3968Y1884D02*
X4018Y1884D01*
X4067Y1884D02*
X4117Y1884D01*
X4167Y1884D02*
X4217Y1884D01*
X2766Y1883D02*
X2819Y1883D01*
X2866Y1883D02*
X2919Y1883D01*
X2966Y1883D02*
X3019Y1883D01*
X3066Y1883D02*
X3119Y1883D01*
X3166Y1883D02*
X3219Y1883D01*
X3266Y1883D02*
X3319Y1883D01*
X3366Y1883D02*
X3419Y1883D01*
X3466Y1883D02*
X3519Y1883D01*
X3566Y1883D02*
X3619Y1883D01*
X3666Y1883D02*
X3719Y1883D01*
X3766Y1883D02*
X3819Y1883D01*
X3866Y1883D02*
X3919Y1883D01*
X3966Y1883D02*
X4019Y1883D01*
X4066Y1883D02*
X4119Y1883D01*
X4166Y1883D02*
X4219Y1883D01*
X2765Y1882D02*
X2820Y1882D01*
X2865Y1882D02*
X2920Y1882D01*
X2965Y1882D02*
X3020Y1882D01*
X3065Y1882D02*
X3120Y1882D01*
X3165Y1882D02*
X3220Y1882D01*
X3265Y1882D02*
X3320Y1882D01*
X3365Y1882D02*
X3420Y1882D01*
X3465Y1882D02*
X3520Y1882D01*
X3565Y1882D02*
X3620Y1882D01*
X3665Y1882D02*
X3720Y1882D01*
X3765Y1882D02*
X3820Y1882D01*
X3865Y1882D02*
X3920Y1882D01*
X3965Y1882D02*
X4020Y1882D01*
X4065Y1882D02*
X4120Y1882D01*
X4165Y1882D02*
X4220Y1882D01*
X2764Y1881D02*
X2821Y1881D01*
X2864Y1881D02*
X2921Y1881D01*
X2964Y1881D02*
X3021Y1881D01*
X3064Y1881D02*
X3121Y1881D01*
X3164Y1881D02*
X3221Y1881D01*
X3264Y1881D02*
X3321Y1881D01*
X3364Y1881D02*
X3421Y1881D01*
X3464Y1881D02*
X3521Y1881D01*
X3564Y1881D02*
X3621Y1881D01*
X3664Y1881D02*
X3721Y1881D01*
X3764Y1881D02*
X3821Y1881D01*
X3864Y1881D02*
X3922Y1881D01*
X3964Y1881D02*
X4021Y1881D01*
X4064Y1881D02*
X4121Y1881D01*
X4164Y1881D02*
X4221Y1881D01*
X2763Y1880D02*
X2822Y1880D01*
X2863Y1880D02*
X2922Y1880D01*
X2963Y1880D02*
X3022Y1880D01*
X3062Y1880D02*
X3122Y1880D01*
X3162Y1880D02*
X3222Y1880D01*
X3262Y1880D02*
X3322Y1880D01*
X3362Y1880D02*
X3422Y1880D01*
X3462Y1880D02*
X3522Y1880D01*
X3562Y1880D02*
X3622Y1880D01*
X3662Y1880D02*
X3722Y1880D01*
X3762Y1880D02*
X3822Y1880D01*
X3863Y1880D02*
X3923Y1880D01*
X3963Y1880D02*
X4023Y1880D01*
X4063Y1880D02*
X4122Y1880D01*
X4162Y1880D02*
X4222Y1880D01*
X2761Y1879D02*
X2823Y1879D01*
X2861Y1879D02*
X2923Y1879D01*
X2961Y1879D02*
X3023Y1879D01*
X3061Y1879D02*
X3123Y1879D01*
X3161Y1879D02*
X3223Y1879D01*
X3261Y1879D02*
X3323Y1879D01*
X3361Y1879D02*
X3423Y1879D01*
X3461Y1879D02*
X3523Y1879D01*
X3561Y1879D02*
X3623Y1879D01*
X3661Y1879D02*
X3723Y1879D01*
X3761Y1879D02*
X3823Y1879D01*
X3862Y1879D02*
X3924Y1879D01*
X3962Y1879D02*
X4024Y1879D01*
X4062Y1879D02*
X4123Y1879D01*
X4161Y1879D02*
X4223Y1879D01*
X2761Y1878D02*
X2824Y1878D01*
X2861Y1878D02*
X2924Y1878D01*
X2961Y1878D02*
X3024Y1878D01*
X3061Y1878D02*
X3124Y1878D01*
X3161Y1878D02*
X3224Y1878D01*
X3261Y1878D02*
X3324Y1878D01*
X3361Y1878D02*
X3424Y1878D01*
X3461Y1878D02*
X3524Y1878D01*
X3561Y1878D02*
X3624Y1878D01*
X3661Y1878D02*
X3724Y1878D01*
X3761Y1878D02*
X3824Y1878D01*
X3861Y1878D02*
X3925Y1878D01*
X3961Y1878D02*
X4024Y1878D01*
X4061Y1878D02*
X4124Y1878D01*
X4160Y1878D02*
X4224Y1878D01*
X2760Y1877D02*
X2825Y1877D01*
X2860Y1877D02*
X2925Y1877D01*
X2960Y1877D02*
X3025Y1877D01*
X3060Y1877D02*
X3125Y1877D01*
X3160Y1877D02*
X3225Y1877D01*
X3260Y1877D02*
X3325Y1877D01*
X3360Y1877D02*
X3425Y1877D01*
X3460Y1877D02*
X3525Y1877D01*
X3560Y1877D02*
X3625Y1877D01*
X3660Y1877D02*
X3725Y1877D01*
X3760Y1877D02*
X3825Y1877D01*
X3860Y1877D02*
X3926Y1877D01*
X3960Y1877D02*
X4025Y1877D01*
X4060Y1877D02*
X4125Y1877D01*
X4160Y1877D02*
X4225Y1877D01*
X2759Y1876D02*
X2826Y1876D01*
X2859Y1876D02*
X2926Y1876D01*
X2959Y1876D02*
X3026Y1876D01*
X3059Y1876D02*
X3126Y1876D01*
X3159Y1876D02*
X3226Y1876D01*
X3259Y1876D02*
X3326Y1876D01*
X3359Y1876D02*
X3426Y1876D01*
X3459Y1876D02*
X3526Y1876D01*
X3559Y1876D02*
X3626Y1876D01*
X3659Y1876D02*
X3726Y1876D01*
X3759Y1876D02*
X3826Y1876D01*
X3859Y1876D02*
X3926Y1876D01*
X3959Y1876D02*
X4026Y1876D01*
X4059Y1876D02*
X4126Y1876D01*
X4159Y1876D02*
X4226Y1876D01*
X2758Y1875D02*
X2827Y1875D01*
X2858Y1875D02*
X2927Y1875D01*
X2958Y1875D02*
X3027Y1875D01*
X3058Y1875D02*
X3127Y1875D01*
X3158Y1875D02*
X3227Y1875D01*
X3258Y1875D02*
X3327Y1875D01*
X3358Y1875D02*
X3427Y1875D01*
X3458Y1875D02*
X3527Y1875D01*
X3558Y1875D02*
X3627Y1875D01*
X3658Y1875D02*
X3727Y1875D01*
X3758Y1875D02*
X3827Y1875D01*
X3858Y1875D02*
X3927Y1875D01*
X3958Y1875D02*
X4027Y1875D01*
X4058Y1875D02*
X4127Y1875D01*
X4158Y1875D02*
X4227Y1875D01*
X2757Y1874D02*
X2827Y1874D01*
X2857Y1874D02*
X2927Y1874D01*
X2957Y1874D02*
X3027Y1874D01*
X3057Y1874D02*
X3127Y1874D01*
X3157Y1874D02*
X3227Y1874D01*
X3257Y1874D02*
X3327Y1874D01*
X3357Y1874D02*
X3427Y1874D01*
X3457Y1874D02*
X3527Y1874D01*
X3557Y1874D02*
X3627Y1874D01*
X3657Y1874D02*
X3727Y1874D01*
X3757Y1874D02*
X3827Y1874D01*
X3858Y1874D02*
X3928Y1874D01*
X3958Y1874D02*
X4028Y1874D01*
X4057Y1874D02*
X4128Y1874D01*
X4157Y1874D02*
X4227Y1874D01*
X2757Y1873D02*
X2828Y1873D01*
X2857Y1873D02*
X2928Y1873D01*
X2957Y1873D02*
X3028Y1873D01*
X3057Y1873D02*
X3128Y1873D01*
X3157Y1873D02*
X3228Y1873D01*
X3257Y1873D02*
X3328Y1873D01*
X3357Y1873D02*
X3428Y1873D01*
X3457Y1873D02*
X3528Y1873D01*
X3557Y1873D02*
X3628Y1873D01*
X3657Y1873D02*
X3728Y1873D01*
X3757Y1873D02*
X3828Y1873D01*
X3857Y1873D02*
X3929Y1873D01*
X3957Y1873D02*
X4028Y1873D01*
X4057Y1873D02*
X4128Y1873D01*
X4157Y1873D02*
X4228Y1873D01*
X2756Y1872D02*
X2829Y1872D01*
X2856Y1872D02*
X2929Y1872D01*
X2956Y1872D02*
X3029Y1872D01*
X3056Y1872D02*
X3129Y1872D01*
X3156Y1872D02*
X3229Y1872D01*
X3256Y1872D02*
X3329Y1872D01*
X3356Y1872D02*
X3429Y1872D01*
X3456Y1872D02*
X3529Y1872D01*
X3556Y1872D02*
X3629Y1872D01*
X3656Y1872D02*
X3729Y1872D01*
X3756Y1872D02*
X3829Y1872D01*
X3856Y1872D02*
X3929Y1872D01*
X3956Y1872D02*
X4029Y1872D01*
X4056Y1872D02*
X4129Y1872D01*
X4156Y1872D02*
X4229Y1872D01*
X2755Y1871D02*
X2829Y1871D01*
X2855Y1871D02*
X2929Y1871D01*
X2955Y1871D02*
X3029Y1871D01*
X3055Y1871D02*
X3129Y1871D01*
X3155Y1871D02*
X3229Y1871D01*
X3255Y1871D02*
X3329Y1871D01*
X3355Y1871D02*
X3429Y1871D01*
X3455Y1871D02*
X3529Y1871D01*
X3555Y1871D02*
X3629Y1871D01*
X3655Y1871D02*
X3729Y1871D01*
X3755Y1871D02*
X3829Y1871D01*
X3856Y1871D02*
X3930Y1871D01*
X3956Y1871D02*
X4030Y1871D01*
X4055Y1871D02*
X4129Y1871D01*
X4155Y1871D02*
X4229Y1871D01*
X2755Y1870D02*
X2830Y1870D01*
X2855Y1870D02*
X2930Y1870D01*
X2955Y1870D02*
X3030Y1870D01*
X3055Y1870D02*
X3130Y1870D01*
X3155Y1870D02*
X3230Y1870D01*
X3255Y1870D02*
X3330Y1870D01*
X3355Y1870D02*
X3430Y1870D01*
X3455Y1870D02*
X3530Y1870D01*
X3555Y1870D02*
X3630Y1870D01*
X3655Y1870D02*
X3730Y1870D01*
X3755Y1870D02*
X3830Y1870D01*
X3855Y1870D02*
X3930Y1870D01*
X3955Y1870D02*
X4030Y1870D01*
X4055Y1870D02*
X4130Y1870D01*
X4155Y1870D02*
X4230Y1870D01*
X2754Y1869D02*
X2831Y1869D01*
X2854Y1869D02*
X2931Y1869D01*
X2954Y1869D02*
X3031Y1869D01*
X3054Y1869D02*
X3131Y1869D01*
X3154Y1869D02*
X3231Y1869D01*
X3254Y1869D02*
X3331Y1869D01*
X3354Y1869D02*
X3431Y1869D01*
X3454Y1869D02*
X3531Y1869D01*
X3554Y1869D02*
X3631Y1869D01*
X3654Y1869D02*
X3731Y1869D01*
X3754Y1869D02*
X3831Y1869D01*
X3855Y1869D02*
X3931Y1869D01*
X3954Y1869D02*
X4031Y1869D01*
X4054Y1869D02*
X4131Y1869D01*
X4154Y1869D02*
X4231Y1869D01*
X2754Y1868D02*
X2831Y1868D01*
X2854Y1868D02*
X2931Y1868D01*
X2954Y1868D02*
X3031Y1868D01*
X3054Y1868D02*
X3131Y1868D01*
X3154Y1868D02*
X3231Y1868D01*
X3254Y1868D02*
X3331Y1868D01*
X3354Y1868D02*
X3431Y1868D01*
X3454Y1868D02*
X3531Y1868D01*
X3554Y1868D02*
X3631Y1868D01*
X3654Y1868D02*
X3731Y1868D01*
X3754Y1868D02*
X3831Y1868D01*
X3854Y1868D02*
X3932Y1868D01*
X3954Y1868D02*
X4031Y1868D01*
X4054Y1868D02*
X4131Y1868D01*
X4154Y1868D02*
X4231Y1868D01*
X2753Y1867D02*
X2832Y1867D01*
X2853Y1867D02*
X2932Y1867D01*
X2953Y1867D02*
X3032Y1867D01*
X3053Y1867D02*
X3132Y1867D01*
X3153Y1867D02*
X3232Y1867D01*
X3253Y1867D02*
X3332Y1867D01*
X3353Y1867D02*
X3432Y1867D01*
X3453Y1867D02*
X3532Y1867D01*
X3553Y1867D02*
X3632Y1867D01*
X3653Y1867D02*
X3732Y1867D01*
X3753Y1867D02*
X3832Y1867D01*
X3854Y1867D02*
X3932Y1867D01*
X3953Y1867D02*
X4032Y1867D01*
X4053Y1867D02*
X4132Y1867D01*
X4153Y1867D02*
X4232Y1867D01*
X2753Y1866D02*
X2832Y1866D01*
X2853Y1866D02*
X2932Y1866D01*
X2953Y1866D02*
X3032Y1866D01*
X3053Y1866D02*
X3132Y1866D01*
X3153Y1866D02*
X3232Y1866D01*
X3253Y1866D02*
X3332Y1866D01*
X3353Y1866D02*
X3432Y1866D01*
X3453Y1866D02*
X3532Y1866D01*
X3553Y1866D02*
X3632Y1866D01*
X3653Y1866D02*
X3732Y1866D01*
X3753Y1866D02*
X3832Y1866D01*
X3853Y1866D02*
X3932Y1866D01*
X3953Y1866D02*
X4032Y1866D01*
X4053Y1866D02*
X4132Y1866D01*
X4153Y1866D02*
X4232Y1866D01*
X2752Y1865D02*
X2833Y1865D01*
X2852Y1865D02*
X2933Y1865D01*
X2952Y1865D02*
X3033Y1865D01*
X3052Y1865D02*
X3133Y1865D01*
X3152Y1865D02*
X3233Y1865D01*
X3252Y1865D02*
X3333Y1865D01*
X3352Y1865D02*
X3433Y1865D01*
X3452Y1865D02*
X3532Y1865D01*
X3552Y1865D02*
X3632Y1865D01*
X3652Y1865D02*
X3732Y1865D01*
X3752Y1865D02*
X3832Y1865D01*
X3853Y1865D02*
X3933Y1865D01*
X3952Y1865D02*
X4033Y1865D01*
X4052Y1865D02*
X4133Y1865D01*
X4152Y1865D02*
X4232Y1865D01*
X2752Y1864D02*
X2833Y1864D01*
X2852Y1864D02*
X2933Y1864D01*
X2952Y1864D02*
X3033Y1864D01*
X3052Y1864D02*
X3133Y1864D01*
X3152Y1864D02*
X3233Y1864D01*
X3252Y1864D02*
X3333Y1864D01*
X3352Y1864D02*
X3433Y1864D01*
X3452Y1864D02*
X3533Y1864D01*
X3552Y1864D02*
X3633Y1864D01*
X3652Y1864D02*
X3733Y1864D01*
X3752Y1864D02*
X3833Y1864D01*
X3852Y1864D02*
X3933Y1864D01*
X3952Y1864D02*
X4033Y1864D01*
X4052Y1864D02*
X4133Y1864D01*
X4152Y1864D02*
X4233Y1864D01*
X2752Y1863D02*
X2833Y1863D01*
X2852Y1863D02*
X2933Y1863D01*
X2952Y1863D02*
X3033Y1863D01*
X3052Y1863D02*
X3133Y1863D01*
X3152Y1863D02*
X3233Y1863D01*
X3252Y1863D02*
X3333Y1863D01*
X3352Y1863D02*
X3433Y1863D01*
X3452Y1863D02*
X3533Y1863D01*
X3551Y1863D02*
X3633Y1863D01*
X3651Y1863D02*
X3733Y1863D01*
X3751Y1863D02*
X3833Y1863D01*
X3852Y1863D02*
X3934Y1863D01*
X3952Y1863D02*
X4033Y1863D01*
X4052Y1863D02*
X4133Y1863D01*
X4151Y1863D02*
X4233Y1863D01*
X2751Y1862D02*
X2834Y1862D01*
X2851Y1862D02*
X2934Y1862D01*
X2951Y1862D02*
X3034Y1862D01*
X3051Y1862D02*
X3134Y1862D01*
X3151Y1862D02*
X3234Y1862D01*
X3251Y1862D02*
X3334Y1862D01*
X3351Y1862D02*
X3434Y1862D01*
X3451Y1862D02*
X3534Y1862D01*
X3551Y1862D02*
X3634Y1862D01*
X3651Y1862D02*
X3734Y1862D01*
X3751Y1862D02*
X3834Y1862D01*
X3852Y1862D02*
X3934Y1862D01*
X3951Y1862D02*
X4034Y1862D01*
X4051Y1862D02*
X4134Y1862D01*
X4151Y1862D02*
X4234Y1862D01*
X2751Y1861D02*
X2834Y1861D01*
X2851Y1861D02*
X2934Y1861D01*
X2951Y1861D02*
X3034Y1861D01*
X3051Y1861D02*
X3134Y1861D01*
X3151Y1861D02*
X3234Y1861D01*
X3251Y1861D02*
X3334Y1861D01*
X3351Y1861D02*
X3434Y1861D01*
X3451Y1861D02*
X3534Y1861D01*
X3551Y1861D02*
X3634Y1861D01*
X3651Y1861D02*
X3734Y1861D01*
X3751Y1861D02*
X3834Y1861D01*
X3851Y1861D02*
X3934Y1861D01*
X3951Y1861D02*
X4034Y1861D01*
X4051Y1861D02*
X4134Y1861D01*
X4151Y1861D02*
X4234Y1861D01*
X2751Y1860D02*
X2834Y1860D01*
X2851Y1860D02*
X2934Y1860D01*
X2951Y1860D02*
X3034Y1860D01*
X3051Y1860D02*
X3134Y1860D01*
X3151Y1860D02*
X3234Y1860D01*
X3251Y1860D02*
X3334Y1860D01*
X3351Y1860D02*
X3434Y1860D01*
X3451Y1860D02*
X3534Y1860D01*
X3551Y1860D02*
X3634Y1860D01*
X3651Y1860D02*
X3734Y1860D01*
X3751Y1860D02*
X3834Y1860D01*
X3851Y1860D02*
X3935Y1860D01*
X3951Y1860D02*
X4034Y1860D01*
X4051Y1860D02*
X4134Y1860D01*
X4151Y1860D02*
X4234Y1860D01*
X2750Y1859D02*
X2834Y1859D01*
X2850Y1859D02*
X2934Y1859D01*
X2950Y1859D02*
X3034Y1859D01*
X3050Y1859D02*
X3134Y1859D01*
X3150Y1859D02*
X3234Y1859D01*
X3250Y1859D02*
X3334Y1859D01*
X3350Y1859D02*
X3434Y1859D01*
X3450Y1859D02*
X3534Y1859D01*
X3550Y1859D02*
X3634Y1859D01*
X3650Y1859D02*
X3734Y1859D01*
X3750Y1859D02*
X3834Y1859D01*
X3851Y1859D02*
X3935Y1859D01*
X3951Y1859D02*
X4035Y1859D01*
X4050Y1859D02*
X4134Y1859D01*
X4150Y1859D02*
X4234Y1859D01*
X2750Y1858D02*
X2835Y1858D01*
X2850Y1858D02*
X2935Y1858D01*
X2950Y1858D02*
X3035Y1858D01*
X3050Y1858D02*
X3135Y1858D01*
X3150Y1858D02*
X3235Y1858D01*
X3250Y1858D02*
X3335Y1858D01*
X3350Y1858D02*
X3435Y1858D01*
X3450Y1858D02*
X3535Y1858D01*
X3550Y1858D02*
X3635Y1858D01*
X3650Y1858D02*
X3735Y1858D01*
X3750Y1858D02*
X3835Y1858D01*
X3851Y1858D02*
X3935Y1858D01*
X3950Y1858D02*
X4035Y1858D01*
X4050Y1858D02*
X4135Y1858D01*
X4150Y1858D02*
X4235Y1858D01*
X2750Y1857D02*
X2835Y1857D01*
X2850Y1857D02*
X2935Y1857D01*
X2950Y1857D02*
X3035Y1857D01*
X3050Y1857D02*
X3135Y1857D01*
X3150Y1857D02*
X3235Y1857D01*
X3250Y1857D02*
X3335Y1857D01*
X3350Y1857D02*
X3435Y1857D01*
X3450Y1857D02*
X3535Y1857D01*
X3550Y1857D02*
X3635Y1857D01*
X3650Y1857D02*
X3735Y1857D01*
X3750Y1857D02*
X3835Y1857D01*
X3850Y1857D02*
X3935Y1857D01*
X3950Y1857D02*
X4035Y1857D01*
X4050Y1857D02*
X4135Y1857D01*
X4150Y1857D02*
X4235Y1857D01*
X2750Y1856D02*
X2835Y1856D01*
X2850Y1856D02*
X2935Y1856D01*
X2950Y1856D02*
X3035Y1856D01*
X3050Y1856D02*
X3135Y1856D01*
X3150Y1856D02*
X3235Y1856D01*
X3250Y1856D02*
X3335Y1856D01*
X3350Y1856D02*
X3435Y1856D01*
X3450Y1856D02*
X3535Y1856D01*
X3550Y1856D02*
X3635Y1856D01*
X3650Y1856D02*
X3735Y1856D01*
X3750Y1856D02*
X3835Y1856D01*
X3850Y1856D02*
X3935Y1856D01*
X3950Y1856D02*
X4035Y1856D01*
X4050Y1856D02*
X4135Y1856D01*
X4150Y1856D02*
X4235Y1856D01*
X2750Y1855D02*
X2835Y1855D01*
X2850Y1855D02*
X2935Y1855D01*
X2950Y1855D02*
X3035Y1855D01*
X3050Y1855D02*
X3135Y1855D01*
X3150Y1855D02*
X3235Y1855D01*
X3250Y1855D02*
X3335Y1855D01*
X3350Y1855D02*
X3435Y1855D01*
X3450Y1855D02*
X3535Y1855D01*
X3550Y1855D02*
X3635Y1855D01*
X3650Y1855D02*
X3735Y1855D01*
X3750Y1855D02*
X3835Y1855D01*
X3850Y1855D02*
X3936Y1855D01*
X3950Y1855D02*
X4035Y1855D01*
X4050Y1855D02*
X4135Y1855D01*
X4149Y1855D02*
X4235Y1855D01*
X2749Y1854D02*
X2835Y1854D01*
X2849Y1854D02*
X2935Y1854D01*
X2949Y1854D02*
X3035Y1854D01*
X3049Y1854D02*
X3135Y1854D01*
X3149Y1854D02*
X3235Y1854D01*
X3249Y1854D02*
X3335Y1854D01*
X3349Y1854D02*
X3435Y1854D01*
X3449Y1854D02*
X3535Y1854D01*
X3549Y1854D02*
X3635Y1854D01*
X3649Y1854D02*
X3735Y1854D01*
X3749Y1854D02*
X3835Y1854D01*
X3850Y1854D02*
X3936Y1854D01*
X3950Y1854D02*
X4036Y1854D01*
X4049Y1854D02*
X4135Y1854D01*
X4149Y1854D02*
X4235Y1854D01*
X2749Y1853D02*
X2836Y1853D01*
X2849Y1853D02*
X2936Y1853D01*
X2949Y1853D02*
X3036Y1853D01*
X3049Y1853D02*
X3136Y1853D01*
X3149Y1853D02*
X3236Y1853D01*
X3249Y1853D02*
X3336Y1853D01*
X3349Y1853D02*
X3436Y1853D01*
X3449Y1853D02*
X3535Y1853D01*
X3549Y1853D02*
X3635Y1853D01*
X3649Y1853D02*
X3735Y1853D01*
X3749Y1853D02*
X3835Y1853D01*
X3850Y1853D02*
X3936Y1853D01*
X3949Y1853D02*
X4036Y1853D01*
X4049Y1853D02*
X4136Y1853D01*
X4149Y1853D02*
X4235Y1853D01*
X2749Y1852D02*
X2836Y1852D01*
X2849Y1852D02*
X2936Y1852D01*
X2949Y1852D02*
X3036Y1852D01*
X3049Y1852D02*
X3136Y1852D01*
X3149Y1852D02*
X3236Y1852D01*
X3249Y1852D02*
X3336Y1852D01*
X3349Y1852D02*
X3436Y1852D01*
X3449Y1852D02*
X3536Y1852D01*
X3549Y1852D02*
X3636Y1852D01*
X3649Y1852D02*
X3736Y1852D01*
X3749Y1852D02*
X3836Y1852D01*
X3850Y1852D02*
X3936Y1852D01*
X3949Y1852D02*
X4036Y1852D01*
X4049Y1852D02*
X4136Y1852D01*
X4149Y1852D02*
X4236Y1852D01*
X2749Y1851D02*
X2836Y1851D01*
X2849Y1851D02*
X2936Y1851D01*
X2949Y1851D02*
X3036Y1851D01*
X3049Y1851D02*
X3136Y1851D01*
X3149Y1851D02*
X3236Y1851D01*
X3249Y1851D02*
X3336Y1851D01*
X3349Y1851D02*
X3436Y1851D01*
X3449Y1851D02*
X3536Y1851D01*
X3549Y1851D02*
X3636Y1851D01*
X3649Y1851D02*
X3736Y1851D01*
X3749Y1851D02*
X3836Y1851D01*
X3850Y1851D02*
X3936Y1851D01*
X3949Y1851D02*
X4036Y1851D01*
X4049Y1851D02*
X4136Y1851D01*
X4149Y1851D02*
X4236Y1851D01*
X2749Y1850D02*
X2836Y1850D01*
X2849Y1850D02*
X2936Y1850D01*
X2949Y1850D02*
X3036Y1850D01*
X3049Y1850D02*
X3136Y1850D01*
X3149Y1850D02*
X3236Y1850D01*
X3249Y1850D02*
X3336Y1850D01*
X3349Y1850D02*
X3436Y1850D01*
X3449Y1850D02*
X3536Y1850D01*
X3549Y1850D02*
X3636Y1850D01*
X3649Y1850D02*
X3736Y1850D01*
X3749Y1850D02*
X3836Y1850D01*
X3849Y1850D02*
X3936Y1850D01*
X3949Y1850D02*
X4036Y1850D01*
X4049Y1850D02*
X4136Y1850D01*
X4149Y1850D02*
X4236Y1850D01*
X2749Y1849D02*
X2836Y1849D01*
X2849Y1849D02*
X2936Y1849D01*
X2949Y1849D02*
X3036Y1849D01*
X3049Y1849D02*
X3136Y1849D01*
X3149Y1849D02*
X3236Y1849D01*
X3249Y1849D02*
X3336Y1849D01*
X3349Y1849D02*
X3436Y1849D01*
X3449Y1849D02*
X3536Y1849D01*
X3549Y1849D02*
X3636Y1849D01*
X3649Y1849D02*
X3736Y1849D01*
X3749Y1849D02*
X3836Y1849D01*
X3849Y1849D02*
X3936Y1849D01*
X3949Y1849D02*
X4036Y1849D01*
X4049Y1849D02*
X4136Y1849D01*
X4149Y1849D02*
X4236Y1849D01*
X2749Y1848D02*
X2836Y1848D01*
X2849Y1848D02*
X2936Y1848D01*
X2949Y1848D02*
X3036Y1848D01*
X3049Y1848D02*
X3136Y1848D01*
X3149Y1848D02*
X3236Y1848D01*
X3249Y1848D02*
X3336Y1848D01*
X3349Y1848D02*
X3436Y1848D01*
X3449Y1848D02*
X3536Y1848D01*
X3549Y1848D02*
X3636Y1848D01*
X3649Y1848D02*
X3736Y1848D01*
X3749Y1848D02*
X3836Y1848D01*
X3849Y1848D02*
X3936Y1848D01*
X3949Y1848D02*
X4036Y1848D01*
X4049Y1848D02*
X4136Y1848D01*
X4149Y1848D02*
X4236Y1848D01*
X2749Y1847D02*
X2836Y1847D01*
X2849Y1847D02*
X2936Y1847D01*
X2949Y1847D02*
X3036Y1847D01*
X3049Y1847D02*
X3136Y1847D01*
X3149Y1847D02*
X3236Y1847D01*
X3249Y1847D02*
X3336Y1847D01*
X3349Y1847D02*
X3436Y1847D01*
X3449Y1847D02*
X3536Y1847D01*
X3549Y1847D02*
X3636Y1847D01*
X3649Y1847D02*
X3736Y1847D01*
X3749Y1847D02*
X3836Y1847D01*
X3849Y1847D02*
X3936Y1847D01*
X3949Y1847D02*
X4036Y1847D01*
X4049Y1847D02*
X4136Y1847D01*
X4149Y1847D02*
X4236Y1847D01*
X2749Y1846D02*
X2836Y1846D01*
X2849Y1846D02*
X2936Y1846D01*
X2949Y1846D02*
X3036Y1846D01*
X3049Y1846D02*
X3136Y1846D01*
X3149Y1846D02*
X3236Y1846D01*
X3249Y1846D02*
X3336Y1846D01*
X3349Y1846D02*
X3436Y1846D01*
X3449Y1846D02*
X3536Y1846D01*
X3549Y1846D02*
X3636Y1846D01*
X3649Y1846D02*
X3736Y1846D01*
X3749Y1846D02*
X3836Y1846D01*
X3849Y1846D02*
X3936Y1846D01*
X3949Y1846D02*
X4036Y1846D01*
X4049Y1846D02*
X4136Y1846D01*
X4149Y1846D02*
X4236Y1846D01*
X2749Y1845D02*
X2836Y1845D01*
X2849Y1845D02*
X2936Y1845D01*
X2949Y1845D02*
X3036Y1845D01*
X3049Y1845D02*
X3136Y1845D01*
X3149Y1845D02*
X3236Y1845D01*
X3249Y1845D02*
X3336Y1845D01*
X3349Y1845D02*
X3436Y1845D01*
X3449Y1845D02*
X3536Y1845D01*
X3549Y1845D02*
X3636Y1845D01*
X3649Y1845D02*
X3736Y1845D01*
X3749Y1845D02*
X3836Y1845D01*
X3850Y1845D02*
X3936Y1845D01*
X3949Y1845D02*
X4036Y1845D01*
X4049Y1845D02*
X4136Y1845D01*
X4149Y1845D02*
X4236Y1845D01*
X2749Y1844D02*
X2836Y1844D01*
X2849Y1844D02*
X2936Y1844D01*
X2949Y1844D02*
X3036Y1844D01*
X3049Y1844D02*
X3136Y1844D01*
X3149Y1844D02*
X3236Y1844D01*
X3249Y1844D02*
X3336Y1844D01*
X3349Y1844D02*
X3436Y1844D01*
X3449Y1844D02*
X3536Y1844D01*
X3549Y1844D02*
X3636Y1844D01*
X3649Y1844D02*
X3736Y1844D01*
X3749Y1844D02*
X3836Y1844D01*
X3850Y1844D02*
X3936Y1844D01*
X3949Y1844D02*
X4036Y1844D01*
X4049Y1844D02*
X4136Y1844D01*
X4149Y1844D02*
X4235Y1844D01*
X2749Y1843D02*
X2835Y1843D01*
X2849Y1843D02*
X2935Y1843D01*
X2949Y1843D02*
X3035Y1843D01*
X3049Y1843D02*
X3135Y1843D01*
X3149Y1843D02*
X3235Y1843D01*
X3249Y1843D02*
X3335Y1843D01*
X3349Y1843D02*
X3435Y1843D01*
X3449Y1843D02*
X3535Y1843D01*
X3549Y1843D02*
X3635Y1843D01*
X3649Y1843D02*
X3735Y1843D01*
X3749Y1843D02*
X3835Y1843D01*
X3850Y1843D02*
X3936Y1843D01*
X3950Y1843D02*
X4036Y1843D01*
X4049Y1843D02*
X4135Y1843D01*
X4149Y1843D02*
X4235Y1843D01*
X2750Y1842D02*
X2835Y1842D01*
X2850Y1842D02*
X2935Y1842D01*
X2950Y1842D02*
X3035Y1842D01*
X3050Y1842D02*
X3135Y1842D01*
X3150Y1842D02*
X3235Y1842D01*
X3250Y1842D02*
X3335Y1842D01*
X3350Y1842D02*
X3435Y1842D01*
X3450Y1842D02*
X3535Y1842D01*
X3550Y1842D02*
X3635Y1842D01*
X3649Y1842D02*
X3735Y1842D01*
X3749Y1842D02*
X3835Y1842D01*
X3850Y1842D02*
X3936Y1842D01*
X3950Y1842D02*
X4035Y1842D01*
X4050Y1842D02*
X4135Y1842D01*
X4149Y1842D02*
X4235Y1842D01*
X2750Y1841D02*
X2835Y1841D01*
X2850Y1841D02*
X2935Y1841D01*
X2950Y1841D02*
X3035Y1841D01*
X3050Y1841D02*
X3135Y1841D01*
X3150Y1841D02*
X3235Y1841D01*
X3250Y1841D02*
X3335Y1841D01*
X3350Y1841D02*
X3435Y1841D01*
X3450Y1841D02*
X3535Y1841D01*
X3550Y1841D02*
X3635Y1841D01*
X3650Y1841D02*
X3735Y1841D01*
X3750Y1841D02*
X3835Y1841D01*
X3850Y1841D02*
X3935Y1841D01*
X3950Y1841D02*
X4035Y1841D01*
X4050Y1841D02*
X4135Y1841D01*
X4150Y1841D02*
X4235Y1841D01*
X2750Y1840D02*
X2835Y1840D01*
X2850Y1840D02*
X2935Y1840D01*
X2950Y1840D02*
X3035Y1840D01*
X3050Y1840D02*
X3135Y1840D01*
X3150Y1840D02*
X3235Y1840D01*
X3250Y1840D02*
X3335Y1840D01*
X3350Y1840D02*
X3435Y1840D01*
X3450Y1840D02*
X3535Y1840D01*
X3550Y1840D02*
X3635Y1840D01*
X3650Y1840D02*
X3735Y1840D01*
X3750Y1840D02*
X3835Y1840D01*
X3850Y1840D02*
X3935Y1840D01*
X3950Y1840D02*
X4035Y1840D01*
X4050Y1840D02*
X4135Y1840D01*
X4150Y1840D02*
X4235Y1840D01*
X2750Y1839D02*
X2835Y1839D01*
X2850Y1839D02*
X2935Y1839D01*
X2950Y1839D02*
X3035Y1839D01*
X3050Y1839D02*
X3135Y1839D01*
X3150Y1839D02*
X3235Y1839D01*
X3250Y1839D02*
X3335Y1839D01*
X3350Y1839D02*
X3435Y1839D01*
X3450Y1839D02*
X3535Y1839D01*
X3550Y1839D02*
X3635Y1839D01*
X3650Y1839D02*
X3735Y1839D01*
X3750Y1839D02*
X3835Y1839D01*
X3850Y1839D02*
X3935Y1839D01*
X3950Y1839D02*
X4035Y1839D01*
X4050Y1839D02*
X4135Y1839D01*
X4150Y1839D02*
X4235Y1839D01*
X2750Y1838D02*
X2835Y1838D01*
X2850Y1838D02*
X2934Y1838D01*
X2950Y1838D02*
X3034Y1838D01*
X3050Y1838D02*
X3134Y1838D01*
X3150Y1838D02*
X3234Y1838D01*
X3250Y1838D02*
X3334Y1838D01*
X3350Y1838D02*
X3434Y1838D01*
X3450Y1838D02*
X3534Y1838D01*
X3550Y1838D02*
X3634Y1838D01*
X3650Y1838D02*
X3734Y1838D01*
X3750Y1838D02*
X3834Y1838D01*
X3851Y1838D02*
X3935Y1838D01*
X3951Y1838D02*
X4035Y1838D01*
X4050Y1838D02*
X4135Y1838D01*
X4150Y1838D02*
X4234Y1838D01*
X2751Y1837D02*
X2834Y1837D01*
X2851Y1837D02*
X2934Y1837D01*
X2951Y1837D02*
X3034Y1837D01*
X3051Y1837D02*
X3134Y1837D01*
X3151Y1837D02*
X3234Y1837D01*
X3251Y1837D02*
X3334Y1837D01*
X3351Y1837D02*
X3434Y1837D01*
X3451Y1837D02*
X3534Y1837D01*
X3551Y1837D02*
X3634Y1837D01*
X3651Y1837D02*
X3734Y1837D01*
X3751Y1837D02*
X3834Y1837D01*
X3851Y1837D02*
X3935Y1837D01*
X3951Y1837D02*
X4034Y1837D01*
X4051Y1837D02*
X4134Y1837D01*
X4150Y1837D02*
X4234Y1837D01*
X2751Y1836D02*
X2834Y1836D01*
X2851Y1836D02*
X2934Y1836D01*
X2951Y1836D02*
X3034Y1836D01*
X3051Y1836D02*
X3134Y1836D01*
X3151Y1836D02*
X3234Y1836D01*
X3251Y1836D02*
X3334Y1836D01*
X3351Y1836D02*
X3434Y1836D01*
X3451Y1836D02*
X3534Y1836D01*
X3551Y1836D02*
X3634Y1836D01*
X3651Y1836D02*
X3734Y1836D01*
X3751Y1836D02*
X3834Y1836D01*
X3851Y1836D02*
X3934Y1836D01*
X3951Y1836D02*
X4034Y1836D01*
X4051Y1836D02*
X4134Y1836D01*
X4151Y1836D02*
X4234Y1836D01*
X2751Y1835D02*
X2834Y1835D01*
X2851Y1835D02*
X2934Y1835D01*
X2951Y1835D02*
X3034Y1835D01*
X3051Y1835D02*
X3134Y1835D01*
X3151Y1835D02*
X3234Y1835D01*
X3251Y1835D02*
X3334Y1835D01*
X3351Y1835D02*
X3434Y1835D01*
X3451Y1835D02*
X3534Y1835D01*
X3551Y1835D02*
X3634Y1835D01*
X3651Y1835D02*
X3734Y1835D01*
X3751Y1835D02*
X3834Y1835D01*
X3851Y1835D02*
X3934Y1835D01*
X3951Y1835D02*
X4034Y1835D01*
X4051Y1835D02*
X4134Y1835D01*
X4151Y1835D02*
X4234Y1835D01*
X2751Y1834D02*
X2833Y1834D01*
X2851Y1834D02*
X2933Y1834D01*
X2951Y1834D02*
X3033Y1834D01*
X3051Y1834D02*
X3133Y1834D01*
X3151Y1834D02*
X3233Y1834D01*
X3251Y1834D02*
X3333Y1834D01*
X3351Y1834D02*
X3433Y1834D01*
X3451Y1834D02*
X3533Y1834D01*
X3551Y1834D02*
X3633Y1834D01*
X3651Y1834D02*
X3733Y1834D01*
X3751Y1834D02*
X3833Y1834D01*
X3852Y1834D02*
X3934Y1834D01*
X3952Y1834D02*
X4034Y1834D01*
X4052Y1834D02*
X4133Y1834D01*
X4151Y1834D02*
X4233Y1834D01*
X2752Y1833D02*
X2833Y1833D01*
X2852Y1833D02*
X2933Y1833D01*
X2952Y1833D02*
X3033Y1833D01*
X3052Y1833D02*
X3133Y1833D01*
X3152Y1833D02*
X3233Y1833D01*
X3252Y1833D02*
X3333Y1833D01*
X3352Y1833D02*
X3433Y1833D01*
X3452Y1833D02*
X3533Y1833D01*
X3552Y1833D02*
X3633Y1833D01*
X3652Y1833D02*
X3733Y1833D01*
X3752Y1833D02*
X3833Y1833D01*
X3852Y1833D02*
X3933Y1833D01*
X3952Y1833D02*
X4033Y1833D01*
X4052Y1833D02*
X4133Y1833D01*
X4152Y1833D02*
X4233Y1833D01*
X2752Y1832D02*
X2833Y1832D01*
X2852Y1832D02*
X2933Y1832D01*
X2952Y1832D02*
X3033Y1832D01*
X3052Y1832D02*
X3133Y1832D01*
X3152Y1832D02*
X3233Y1832D01*
X3252Y1832D02*
X3333Y1832D01*
X3352Y1832D02*
X3433Y1832D01*
X3452Y1832D02*
X3533Y1832D01*
X3552Y1832D02*
X3633Y1832D01*
X3652Y1832D02*
X3733Y1832D01*
X3752Y1832D02*
X3833Y1832D01*
X3853Y1832D02*
X3933Y1832D01*
X3952Y1832D02*
X4033Y1832D01*
X4052Y1832D02*
X4133Y1832D01*
X4152Y1832D02*
X4233Y1832D01*
X2753Y1831D02*
X2832Y1831D01*
X2853Y1831D02*
X2932Y1831D01*
X2953Y1831D02*
X3032Y1831D01*
X3053Y1831D02*
X3132Y1831D01*
X3153Y1831D02*
X3232Y1831D01*
X3253Y1831D02*
X3332Y1831D01*
X3353Y1831D02*
X3432Y1831D01*
X3453Y1831D02*
X3532Y1831D01*
X3553Y1831D02*
X3632Y1831D01*
X3653Y1831D02*
X3732Y1831D01*
X3753Y1831D02*
X3832Y1831D01*
X3853Y1831D02*
X3933Y1831D01*
X3953Y1831D02*
X4032Y1831D01*
X4053Y1831D02*
X4132Y1831D01*
X4152Y1831D02*
X4232Y1831D01*
X2753Y1830D02*
X2832Y1830D01*
X2853Y1830D02*
X2932Y1830D01*
X2953Y1830D02*
X3032Y1830D01*
X3053Y1830D02*
X3132Y1830D01*
X3153Y1830D02*
X3232Y1830D01*
X3253Y1830D02*
X3332Y1830D01*
X3353Y1830D02*
X3432Y1830D01*
X3453Y1830D02*
X3532Y1830D01*
X3553Y1830D02*
X3632Y1830D01*
X3653Y1830D02*
X3732Y1830D01*
X3753Y1830D02*
X3832Y1830D01*
X3853Y1830D02*
X3932Y1830D01*
X3953Y1830D02*
X4032Y1830D01*
X4053Y1830D02*
X4132Y1830D01*
X4153Y1830D02*
X4232Y1830D01*
X2754Y1829D02*
X2831Y1829D01*
X2854Y1829D02*
X2931Y1829D01*
X2954Y1829D02*
X3031Y1829D01*
X3054Y1829D02*
X3131Y1829D01*
X3154Y1829D02*
X3231Y1829D01*
X3254Y1829D02*
X3331Y1829D01*
X3354Y1829D02*
X3431Y1829D01*
X3454Y1829D02*
X3531Y1829D01*
X3554Y1829D02*
X3631Y1829D01*
X3653Y1829D02*
X3731Y1829D01*
X3753Y1829D02*
X3831Y1829D01*
X3854Y1829D02*
X3932Y1829D01*
X3954Y1829D02*
X4031Y1829D01*
X4054Y1829D02*
X4131Y1829D01*
X4153Y1829D02*
X4231Y1829D01*
X2754Y1828D02*
X2831Y1828D01*
X2854Y1828D02*
X2931Y1828D01*
X2954Y1828D02*
X3031Y1828D01*
X3054Y1828D02*
X3131Y1828D01*
X3154Y1828D02*
X3231Y1828D01*
X3254Y1828D02*
X3331Y1828D01*
X3354Y1828D02*
X3431Y1828D01*
X3454Y1828D02*
X3531Y1828D01*
X3554Y1828D02*
X3631Y1828D01*
X3654Y1828D02*
X3731Y1828D01*
X3754Y1828D02*
X3831Y1828D01*
X3854Y1828D02*
X3931Y1828D01*
X3954Y1828D02*
X4031Y1828D01*
X4054Y1828D02*
X4131Y1828D01*
X4154Y1828D02*
X4231Y1828D01*
X2755Y1827D02*
X2830Y1827D01*
X2855Y1827D02*
X2930Y1827D01*
X2955Y1827D02*
X3030Y1827D01*
X3055Y1827D02*
X3130Y1827D01*
X3155Y1827D02*
X3230Y1827D01*
X3255Y1827D02*
X3330Y1827D01*
X3355Y1827D02*
X3430Y1827D01*
X3455Y1827D02*
X3530Y1827D01*
X3555Y1827D02*
X3630Y1827D01*
X3655Y1827D02*
X3730Y1827D01*
X3755Y1827D02*
X3830Y1827D01*
X3855Y1827D02*
X3931Y1827D01*
X3955Y1827D02*
X4030Y1827D01*
X4055Y1827D02*
X4130Y1827D01*
X4155Y1827D02*
X4230Y1827D01*
X2755Y1826D02*
X2830Y1826D01*
X2855Y1826D02*
X2930Y1826D01*
X2955Y1826D02*
X3030Y1826D01*
X3055Y1826D02*
X3130Y1826D01*
X3155Y1826D02*
X3230Y1826D01*
X3255Y1826D02*
X3330Y1826D01*
X3355Y1826D02*
X3430Y1826D01*
X3455Y1826D02*
X3530Y1826D01*
X3555Y1826D02*
X3630Y1826D01*
X3655Y1826D02*
X3730Y1826D01*
X3755Y1826D02*
X3830Y1826D01*
X3856Y1826D02*
X3930Y1826D01*
X3955Y1826D02*
X4030Y1826D01*
X4055Y1826D02*
X4130Y1826D01*
X4155Y1826D02*
X4229Y1826D01*
X2756Y1825D02*
X2829Y1825D01*
X2856Y1825D02*
X2929Y1825D01*
X2956Y1825D02*
X3029Y1825D01*
X3056Y1825D02*
X3129Y1825D01*
X3156Y1825D02*
X3229Y1825D01*
X3256Y1825D02*
X3329Y1825D01*
X3356Y1825D02*
X3429Y1825D01*
X3456Y1825D02*
X3529Y1825D01*
X3556Y1825D02*
X3629Y1825D01*
X3656Y1825D02*
X3729Y1825D01*
X3756Y1825D02*
X3829Y1825D01*
X3856Y1825D02*
X3929Y1825D01*
X3956Y1825D02*
X4029Y1825D01*
X4056Y1825D02*
X4129Y1825D01*
X4156Y1825D02*
X4229Y1825D01*
X2756Y1824D02*
X2828Y1824D01*
X2856Y1824D02*
X2928Y1824D01*
X2956Y1824D02*
X3028Y1824D01*
X3056Y1824D02*
X3128Y1824D01*
X3156Y1824D02*
X3228Y1824D01*
X3256Y1824D02*
X3328Y1824D01*
X3356Y1824D02*
X3428Y1824D01*
X3456Y1824D02*
X3528Y1824D01*
X3556Y1824D02*
X3628Y1824D01*
X3656Y1824D02*
X3728Y1824D01*
X3756Y1824D02*
X3828Y1824D01*
X3857Y1824D02*
X3929Y1824D01*
X3957Y1824D02*
X4029Y1824D01*
X4057Y1824D02*
X4128Y1824D01*
X4156Y1824D02*
X4228Y1824D01*
X2757Y1823D02*
X2828Y1823D01*
X2857Y1823D02*
X2928Y1823D01*
X2957Y1823D02*
X3028Y1823D01*
X3057Y1823D02*
X3128Y1823D01*
X3157Y1823D02*
X3228Y1823D01*
X3257Y1823D02*
X3328Y1823D01*
X3357Y1823D02*
X3428Y1823D01*
X3457Y1823D02*
X3528Y1823D01*
X3557Y1823D02*
X3628Y1823D01*
X3657Y1823D02*
X3728Y1823D01*
X3757Y1823D02*
X3828Y1823D01*
X3858Y1823D02*
X3928Y1823D01*
X3957Y1823D02*
X4028Y1823D01*
X4057Y1823D02*
X4128Y1823D01*
X4157Y1823D02*
X4228Y1823D01*
X2758Y1822D02*
X2827Y1822D01*
X2858Y1822D02*
X2927Y1822D01*
X2958Y1822D02*
X3027Y1822D01*
X3058Y1822D02*
X3127Y1822D01*
X3158Y1822D02*
X3227Y1822D01*
X3258Y1822D02*
X3327Y1822D01*
X3358Y1822D02*
X3427Y1822D01*
X3458Y1822D02*
X3527Y1822D01*
X3558Y1822D02*
X3627Y1822D01*
X3658Y1822D02*
X3727Y1822D01*
X3758Y1822D02*
X3827Y1822D01*
X3858Y1822D02*
X3927Y1822D01*
X3958Y1822D02*
X4027Y1822D01*
X4058Y1822D02*
X4127Y1822D01*
X4158Y1822D02*
X4227Y1822D01*
X2759Y1821D02*
X2826Y1821D01*
X2859Y1821D02*
X2926Y1821D01*
X2959Y1821D02*
X3026Y1821D01*
X3059Y1821D02*
X3126Y1821D01*
X3159Y1821D02*
X3226Y1821D01*
X3259Y1821D02*
X3326Y1821D01*
X3359Y1821D02*
X3426Y1821D01*
X3459Y1821D02*
X3526Y1821D01*
X3559Y1821D02*
X3626Y1821D01*
X3659Y1821D02*
X3726Y1821D01*
X3759Y1821D02*
X3826Y1821D01*
X3859Y1821D02*
X3927Y1821D01*
X3959Y1821D02*
X4026Y1821D01*
X4059Y1821D02*
X4126Y1821D01*
X4159Y1821D02*
X4226Y1821D01*
X2759Y1820D02*
X2825Y1820D01*
X2859Y1820D02*
X2925Y1820D01*
X2959Y1820D02*
X3025Y1820D01*
X3059Y1820D02*
X3125Y1820D01*
X3159Y1820D02*
X3225Y1820D01*
X3259Y1820D02*
X3325Y1820D01*
X3359Y1820D02*
X3425Y1820D01*
X3459Y1820D02*
X3525Y1820D01*
X3559Y1820D02*
X3625Y1820D01*
X3659Y1820D02*
X3725Y1820D01*
X3759Y1820D02*
X3825Y1820D01*
X3860Y1820D02*
X3926Y1820D01*
X3960Y1820D02*
X4026Y1820D01*
X4060Y1820D02*
X4125Y1820D01*
X4159Y1820D02*
X4225Y1820D01*
X2760Y1819D02*
X2824Y1819D01*
X2860Y1819D02*
X2924Y1819D01*
X2960Y1819D02*
X3024Y1819D01*
X3060Y1819D02*
X3124Y1819D01*
X3160Y1819D02*
X3224Y1819D01*
X3260Y1819D02*
X3324Y1819D01*
X3360Y1819D02*
X3424Y1819D01*
X3460Y1819D02*
X3524Y1819D01*
X3560Y1819D02*
X3624Y1819D01*
X3660Y1819D02*
X3724Y1819D01*
X3760Y1819D02*
X3824Y1819D01*
X3861Y1819D02*
X3925Y1819D01*
X3961Y1819D02*
X4025Y1819D01*
X4060Y1819D02*
X4125Y1819D01*
X4160Y1819D02*
X4224Y1819D01*
X2761Y1818D02*
X2824Y1818D01*
X2861Y1818D02*
X2924Y1818D01*
X2961Y1818D02*
X3024Y1818D01*
X3061Y1818D02*
X3124Y1818D01*
X3161Y1818D02*
X3224Y1818D01*
X3261Y1818D02*
X3324Y1818D01*
X3361Y1818D02*
X3424Y1818D01*
X3461Y1818D02*
X3524Y1818D01*
X3561Y1818D02*
X3624Y1818D01*
X3661Y1818D02*
X3724Y1818D01*
X3761Y1818D02*
X3823Y1818D01*
X3862Y1818D02*
X3924Y1818D01*
X3961Y1818D02*
X4024Y1818D01*
X4061Y1818D02*
X4124Y1818D01*
X4161Y1818D02*
X4223Y1818D01*
X2762Y1817D02*
X2823Y1817D01*
X2862Y1817D02*
X2923Y1817D01*
X2962Y1817D02*
X3023Y1817D01*
X3062Y1817D02*
X3123Y1817D01*
X3162Y1817D02*
X3223Y1817D01*
X3262Y1817D02*
X3323Y1817D01*
X3362Y1817D02*
X3423Y1817D01*
X3462Y1817D02*
X3523Y1817D01*
X3562Y1817D02*
X3623Y1817D01*
X3662Y1817D02*
X3723Y1817D01*
X3762Y1817D02*
X3823Y1817D01*
X3863Y1817D02*
X3923Y1817D01*
X3962Y1817D02*
X4023Y1817D01*
X4062Y1817D02*
X4123Y1817D01*
X4162Y1817D02*
X4222Y1817D01*
X2763Y1816D02*
X2821Y1816D01*
X2863Y1816D02*
X2921Y1816D01*
X2963Y1816D02*
X3021Y1816D01*
X3063Y1816D02*
X3121Y1816D01*
X3163Y1816D02*
X3221Y1816D01*
X3263Y1816D02*
X3321Y1816D01*
X3363Y1816D02*
X3421Y1816D01*
X3463Y1816D02*
X3521Y1816D01*
X3563Y1816D02*
X3621Y1816D01*
X3663Y1816D02*
X3721Y1816D01*
X3763Y1816D02*
X3821Y1816D01*
X3864Y1816D02*
X3922Y1816D01*
X3964Y1816D02*
X4022Y1816D01*
X4063Y1816D02*
X4122Y1816D01*
X4163Y1816D02*
X4221Y1816D01*
X2764Y1815D02*
X2820Y1815D01*
X2864Y1815D02*
X2920Y1815D01*
X2964Y1815D02*
X3020Y1815D01*
X3064Y1815D02*
X3120Y1815D01*
X3164Y1815D02*
X3220Y1815D01*
X3264Y1815D02*
X3320Y1815D01*
X3364Y1815D02*
X3420Y1815D01*
X3464Y1815D02*
X3520Y1815D01*
X3564Y1815D02*
X3620Y1815D01*
X3664Y1815D02*
X3720Y1815D01*
X3764Y1815D02*
X3820Y1815D01*
X3865Y1815D02*
X3921Y1815D01*
X3965Y1815D02*
X4021Y1815D01*
X4065Y1815D02*
X4120Y1815D01*
X4164Y1815D02*
X4220Y1815D01*
X2766Y1814D02*
X2819Y1814D01*
X2866Y1814D02*
X2919Y1814D01*
X2966Y1814D02*
X3019Y1814D01*
X3066Y1814D02*
X3119Y1814D01*
X3166Y1814D02*
X3219Y1814D01*
X3266Y1814D02*
X3319Y1814D01*
X3366Y1814D02*
X3419Y1814D01*
X3466Y1814D02*
X3519Y1814D01*
X3566Y1814D02*
X3619Y1814D01*
X3666Y1814D02*
X3719Y1814D01*
X3766Y1814D02*
X3819Y1814D01*
X3866Y1814D02*
X3919Y1814D01*
X3966Y1814D02*
X4019Y1814D01*
X4066Y1814D02*
X4119Y1814D01*
X4166Y1814D02*
X4219Y1814D01*
X2767Y1813D02*
X2818Y1813D01*
X2867Y1813D02*
X2918Y1813D01*
X2967Y1813D02*
X3018Y1813D01*
X3067Y1813D02*
X3118Y1813D01*
X3167Y1813D02*
X3218Y1813D01*
X3267Y1813D02*
X3318Y1813D01*
X3367Y1813D02*
X3418Y1813D01*
X3467Y1813D02*
X3518Y1813D01*
X3567Y1813D02*
X3618Y1813D01*
X3667Y1813D02*
X3718Y1813D01*
X3767Y1813D02*
X3818Y1813D01*
X3867Y1813D02*
X3918Y1813D01*
X3967Y1813D02*
X4018Y1813D01*
X4067Y1813D02*
X4118Y1813D01*
X4167Y1813D02*
X4218Y1813D01*
X2768Y1812D02*
X2816Y1812D01*
X2868Y1812D02*
X2916Y1812D01*
X2968Y1812D02*
X3016Y1812D01*
X3068Y1812D02*
X3116Y1812D01*
X3168Y1812D02*
X3216Y1812D01*
X3268Y1812D02*
X3316Y1812D01*
X3368Y1812D02*
X3416Y1812D01*
X3468Y1812D02*
X3516Y1812D01*
X3568Y1812D02*
X3616Y1812D01*
X3668Y1812D02*
X3716Y1812D01*
X3768Y1812D02*
X3816Y1812D01*
X3869Y1812D02*
X3917Y1812D01*
X3969Y1812D02*
X4017Y1812D01*
X4069Y1812D02*
X4116Y1812D01*
X4168Y1812D02*
X4216Y1812D01*
X2770Y1811D02*
X2815Y1811D01*
X2870Y1811D02*
X2915Y1811D01*
X2970Y1811D02*
X3015Y1811D01*
X3070Y1811D02*
X3115Y1811D01*
X3170Y1811D02*
X3215Y1811D01*
X3270Y1811D02*
X3315Y1811D01*
X3370Y1811D02*
X3415Y1811D01*
X3470Y1811D02*
X3515Y1811D01*
X3570Y1811D02*
X3615Y1811D01*
X3670Y1811D02*
X3715Y1811D01*
X3770Y1811D02*
X3815Y1811D01*
X3870Y1811D02*
X3915Y1811D01*
X3970Y1811D02*
X4015Y1811D01*
X4070Y1811D02*
X4115Y1811D01*
X4170Y1811D02*
X4215Y1811D01*
X2772Y1810D02*
X2813Y1810D01*
X2872Y1810D02*
X2913Y1810D01*
X2972Y1810D02*
X3013Y1810D01*
X3072Y1810D02*
X3113Y1810D01*
X3172Y1810D02*
X3213Y1810D01*
X3272Y1810D02*
X3313Y1810D01*
X3372Y1810D02*
X3413Y1810D01*
X3472Y1810D02*
X3513Y1810D01*
X3572Y1810D02*
X3613Y1810D01*
X3672Y1810D02*
X3713Y1810D01*
X3772Y1810D02*
X3813Y1810D01*
X3872Y1810D02*
X3913Y1810D01*
X3972Y1810D02*
X4013Y1810D01*
X4072Y1810D02*
X4113Y1810D01*
X4172Y1810D02*
X4213Y1810D01*
X2774Y1809D02*
X2811Y1809D01*
X2874Y1809D02*
X2911Y1809D01*
X2974Y1809D02*
X3011Y1809D01*
X3074Y1809D02*
X3111Y1809D01*
X3174Y1809D02*
X3211Y1809D01*
X3274Y1809D02*
X3311Y1809D01*
X3374Y1809D02*
X3411Y1809D01*
X3474Y1809D02*
X3511Y1809D01*
X3574Y1809D02*
X3611Y1809D01*
X3674Y1809D02*
X3711Y1809D01*
X3774Y1809D02*
X3811Y1809D01*
X3874Y1809D02*
X3912Y1809D01*
X3974Y1809D02*
X4011Y1809D01*
X4074Y1809D02*
X4111Y1809D01*
X4174Y1809D02*
X4211Y1809D01*
X2776Y1808D02*
X2809Y1808D01*
X2876Y1808D02*
X2909Y1808D01*
X2976Y1808D02*
X3009Y1808D01*
X3076Y1808D02*
X3109Y1808D01*
X3176Y1808D02*
X3209Y1808D01*
X3276Y1808D02*
X3309Y1808D01*
X3376Y1808D02*
X3409Y1808D01*
X3476Y1808D02*
X3509Y1808D01*
X3576Y1808D02*
X3609Y1808D01*
X3676Y1808D02*
X3709Y1808D01*
X3776Y1808D02*
X3809Y1808D01*
X3876Y1808D02*
X3910Y1808D01*
X3976Y1808D02*
X4009Y1808D01*
X4076Y1808D02*
X4109Y1808D01*
X4176Y1808D02*
X4209Y1808D01*
X2778Y1807D02*
X2806Y1807D01*
X2878Y1807D02*
X2906Y1807D01*
X2978Y1807D02*
X3006Y1807D01*
X3078Y1807D02*
X3106Y1807D01*
X3178Y1807D02*
X3206Y1807D01*
X3278Y1807D02*
X3306Y1807D01*
X3378Y1807D02*
X3406Y1807D01*
X3478Y1807D02*
X3506Y1807D01*
X3578Y1807D02*
X3606Y1807D01*
X3678Y1807D02*
X3706Y1807D01*
X3778Y1807D02*
X3806Y1807D01*
X3879Y1807D02*
X3907Y1807D01*
X3979Y1807D02*
X4007Y1807D01*
X4079Y1807D02*
X4106Y1807D01*
X4178Y1807D02*
X4206Y1807D01*
X2782Y1806D02*
X2803Y1806D01*
X2882Y1806D02*
X2903Y1806D01*
X2982Y1806D02*
X3003Y1806D01*
X3082Y1806D02*
X3103Y1806D01*
X3182Y1806D02*
X3203Y1806D01*
X3282Y1806D02*
X3303Y1806D01*
X3382Y1806D02*
X3403Y1806D01*
X3482Y1806D02*
X3503Y1806D01*
X3582Y1806D02*
X3603Y1806D01*
X3682Y1806D02*
X3703Y1806D01*
X3782Y1806D02*
X3803Y1806D01*
X3882Y1806D02*
X3903Y1806D01*
X3982Y1806D02*
X4003Y1806D01*
X4082Y1806D02*
X4103Y1806D01*
X4182Y1806D02*
X4203Y1806D01*
X2787Y1805D02*
X2798Y1805D01*
X2887Y1805D02*
X2898Y1805D01*
X2987Y1805D02*
X2998Y1805D01*
X3087Y1805D02*
X3098Y1805D01*
X3187Y1805D02*
X3198Y1805D01*
X3287Y1805D02*
X3298Y1805D01*
X3387Y1805D02*
X3398Y1805D01*
X3487Y1805D02*
X3498Y1805D01*
X3587Y1805D02*
X3598Y1805D01*
X3687Y1805D02*
X3698Y1805D01*
X3787Y1805D02*
X3798Y1805D01*
X3887Y1805D02*
X3898Y1805D01*
X3987Y1805D02*
X3998Y1805D01*
X4087Y1805D02*
X4098Y1805D01*
X4187Y1805D02*
X4198Y1805D01*
X2251Y1490D02*
X2334Y1490D01*
X2251Y1489D02*
X2334Y1489D01*
X2251Y1488D02*
X2334Y1488D01*
X2251Y1487D02*
X2334Y1487D01*
X2251Y1486D02*
X2334Y1486D01*
X2251Y1485D02*
X2334Y1485D01*
X2251Y1484D02*
X2334Y1484D01*
X2251Y1483D02*
X2334Y1483D01*
X2251Y1482D02*
X2334Y1482D01*
X2251Y1481D02*
X2334Y1481D01*
X2251Y1480D02*
X2334Y1480D01*
X2251Y1479D02*
X2334Y1479D01*
X2251Y1478D02*
X2334Y1478D01*
X2251Y1477D02*
X2334Y1477D01*
X2251Y1476D02*
X2334Y1476D01*
X2251Y1475D02*
X2334Y1475D01*
X2251Y1474D02*
X2334Y1474D01*
X2251Y1473D02*
X2334Y1473D01*
X2251Y1472D02*
X2334Y1472D01*
X2251Y1471D02*
X2334Y1471D01*
X2251Y1470D02*
X2334Y1470D01*
X2251Y1469D02*
X2334Y1469D01*
X2251Y1468D02*
X2334Y1468D01*
X2251Y1467D02*
X2334Y1467D01*
X2251Y1466D02*
X2334Y1466D01*
X2251Y1465D02*
X2334Y1465D01*
X2251Y1464D02*
X2334Y1464D01*
X2251Y1463D02*
X2289Y1463D01*
X2296Y1463D02*
X2334Y1463D01*
X2251Y1462D02*
X2286Y1462D01*
X2299Y1462D02*
X2334Y1462D01*
X2251Y1461D02*
X2284Y1461D01*
X2301Y1461D02*
X2334Y1461D01*
X2251Y1460D02*
X2283Y1460D01*
X2302Y1460D02*
X2334Y1460D01*
X2251Y1459D02*
X2281Y1459D01*
X2304Y1459D02*
X2334Y1459D01*
X2251Y1458D02*
X2281Y1458D01*
X2304Y1458D02*
X2334Y1458D01*
X2251Y1457D02*
X2280Y1457D01*
X2305Y1457D02*
X2334Y1457D01*
X2251Y1456D02*
X2279Y1456D01*
X2306Y1456D02*
X2334Y1456D01*
X2251Y1455D02*
X2278Y1455D01*
X2306Y1455D02*
X2334Y1455D01*
X2251Y1454D02*
X2278Y1454D01*
X2307Y1454D02*
X2334Y1454D01*
X2251Y1453D02*
X2278Y1453D01*
X2307Y1453D02*
X2334Y1453D01*
X2251Y1452D02*
X2277Y1452D01*
X2308Y1452D02*
X2334Y1452D01*
X2251Y1451D02*
X2277Y1451D01*
X2308Y1451D02*
X2334Y1451D01*
X2251Y1450D02*
X2277Y1450D01*
X2308Y1450D02*
X2334Y1450D01*
X2251Y1449D02*
X2277Y1449D01*
X2308Y1449D02*
X2334Y1449D01*
X2251Y1448D02*
X2277Y1448D01*
X2308Y1448D02*
X2334Y1448D01*
X2251Y1447D02*
X2277Y1447D01*
X2308Y1447D02*
X2334Y1447D01*
X2251Y1446D02*
X2277Y1446D01*
X2308Y1446D02*
X2334Y1446D01*
X2251Y1445D02*
X2277Y1445D01*
X2308Y1445D02*
X2334Y1445D01*
X2251Y1444D02*
X2278Y1444D01*
X2307Y1444D02*
X2334Y1444D01*
X2251Y1443D02*
X2278Y1443D01*
X2307Y1443D02*
X2334Y1443D01*
X2251Y1442D02*
X2278Y1442D01*
X2307Y1442D02*
X2334Y1442D01*
X2251Y1441D02*
X2279Y1441D01*
X2306Y1441D02*
X2334Y1441D01*
X2251Y1440D02*
X2279Y1440D01*
X2305Y1440D02*
X2334Y1440D01*
X2251Y1439D02*
X2280Y1439D01*
X2305Y1439D02*
X2334Y1439D01*
X2251Y1438D02*
X2281Y1438D01*
X2304Y1438D02*
X2334Y1438D01*
X2251Y1437D02*
X2282Y1437D01*
X2303Y1437D02*
X2334Y1437D01*
X2251Y1436D02*
X2283Y1436D01*
X2301Y1436D02*
X2334Y1436D01*
X2251Y1435D02*
X2285Y1435D01*
X2300Y1435D02*
X2334Y1435D01*
X2251Y1434D02*
X2288Y1434D01*
X2297Y1434D02*
X2334Y1434D01*
X2251Y1433D02*
X2334Y1433D01*
X2251Y1432D02*
X2334Y1432D01*
X2251Y1431D02*
X2334Y1431D01*
X2251Y1430D02*
X2334Y1430D01*
X2251Y1429D02*
X2334Y1429D01*
X2251Y1428D02*
X2334Y1428D01*
X2251Y1427D02*
X2334Y1427D01*
X2251Y1426D02*
X2334Y1426D01*
X2251Y1425D02*
X2334Y1425D01*
X2251Y1424D02*
X2334Y1424D01*
X2251Y1423D02*
X2334Y1423D01*
X2251Y1422D02*
X2334Y1422D01*
X2251Y1421D02*
X2334Y1421D01*
X2251Y1420D02*
X2334Y1420D01*
X2251Y1419D02*
X2334Y1419D01*
X2251Y1418D02*
X2334Y1418D01*
X2251Y1417D02*
X2334Y1417D01*
X2251Y1416D02*
X2334Y1416D01*
X2251Y1415D02*
X2334Y1415D01*
X2251Y1414D02*
X2334Y1414D01*
X2251Y1413D02*
X2334Y1413D01*
X2251Y1412D02*
X2334Y1412D01*
X2251Y1411D02*
X2334Y1411D01*
X2251Y1410D02*
X2334Y1410D01*
X2251Y1409D02*
X2334Y1409D01*
X2251Y1408D02*
X2334Y1408D01*
X2251Y1407D02*
X2334Y1407D01*
D02*
G04 End of Mask0*
M02*