; NON-PLATED HOLES START AT T1
; THROUGH (PLATED) HOLES START AT T100
M48
INCH
T1C0.049194
T2C0.110236
T100C0.031833
T101C0.040000
T102C0.034972
T103C0.015748
T104C0.035000
T105C0.038000
%
T1
X015056Y025450
T2
X050294Y002274
X050294Y014478
X020766Y014478
X020766Y002274
T100
X004931Y024478
X004931Y021478
X015056Y024451
X015056Y022451
X015056Y023451
X004931Y026478
X004931Y023478
X004931Y022478
X004931Y025478
T101
X032931Y014478
X026931Y014478
X034931Y014478
X025931Y014478
X024931Y014478
X030931Y014478
X036931Y014478
X037931Y014478
X022931Y014478
X035931Y014478
X029931Y014478
X028931Y014478
X031931Y014478
X023931Y014478
X027931Y014478
X033931Y014478
T102
X014931Y016552
X009931Y016552
X012931Y016552
T103
X025800Y017810
X017640Y014450
X018840Y012050
X025560Y021410
X017640Y011810
X021720Y012770
T104
X016931Y013552
X016931Y014552
X005931Y016552
X008931Y016552
X016931Y011552
X006931Y016552
X015932Y016552
X013931Y016552
X001931Y013478
X001931Y014478
X001931Y016552
X004931Y016552
X007931Y016552
X016931Y016552
X016931Y012552
X010932Y016552
X002931Y016552
X003931Y016552
X011931Y016552
T105
X007931Y006478
X008931Y006478
T00
M30
